<svg width="1351" height="883" viewBox="0 0 1351 883" fill="none" xmlns="http://www.w3.org/2000/svg">
<rect width="1351" height="883" fill="white"/>
<g clip-path="url(#clip0)">
<path opacity="0.1" d="M248.785 162.11C243.305 168.108 241.195 176.541 238.836 184.469C219.837 248.362 173.021 299.755 119.706 336.463C97.128 352.013 69.6404 372.865 74.5799 400.744C77.2397 415.716 88.9087 426.738 97.5779 438.932C115.766 464.466 121.666 499.172 112.997 529.739C103.137 564.517 75.5798 596.969 84.1091 632.135C89.3686 653.782 107.227 669.187 124.396 682.427C151.18 703.069 178.817 722.407 207.308 740.439C226.407 752.525 246.725 764.286 268.983 765.82C288.581 767.173 307.779 760.453 326.388 753.824C342.646 748.025 359.315 741.991 372.444 730.374C381.013 722.789 387.842 713.003 397.362 706.797C419.72 692.222 448.437 701.458 474.075 707.699C534.57 722.347 599.314 716.998 656.879 692.601C745.181 655.171 812.485 576.567 898.858 534.393C935.994 516.255 976.391 504.999 1010.78 481.639C1030.15 468.338 1046.8 452.087 1059.97 433.62C1085.97 397.443 1100.03 351.318 1095.97 306.167C1091.91 261.016 1069.16 217.507 1033.44 192.019C995.189 164.735 946.883 159.639 903.367 143.26C858.451 126.322 818.475 97.2253 773.988 79.0874C737.969 64.4341 698.768 57.2423 659.264 58.0399C619.76 58.8374 580.956 67.604 545.699 83.6963C497.253 105.794 448.167 157.348 394.212 161.263C355.775 163.968 278.802 129.262 248.785 162.11Z" fill="#2F80ED"/>
<path d="M942.054 371.043C942.054 371.043 927.495 326.443 944.783 293.621C952.136 279.895 954.354 264.387 951.103 249.426C949.497 242.335 947.174 235.391 944.164 228.682" stroke="#535461" stroke-width="2" stroke-miterlimit="10"/>
<path d="M954.973 207.947C954.973 213.412 943.974 229.259 943.974 229.259C943.974 229.259 932.975 213.412 932.975 207.947C932.863 206.586 933.064 205.219 933.564 203.931C934.065 202.643 934.855 201.463 935.884 200.463C936.914 199.463 938.161 198.665 939.548 198.12C940.934 197.574 942.431 197.293 943.944 197.293C945.456 197.293 946.953 197.574 948.34 198.12C949.726 198.665 950.974 199.463 952.003 200.463C953.032 201.463 953.822 202.643 954.323 203.931C954.824 205.219 955.024 206.586 954.913 207.947H954.973Z" fill="#2F80ED"/>
<path d="M973.061 238.215C969.771 242.806 950.973 250.734 950.973 250.734C950.973 250.734 951.313 232.055 954.603 227.464C956.276 225.458 958.73 224.098 961.471 223.659C964.212 223.221 967.035 223.736 969.372 225.101C971.708 226.466 973.384 228.579 974.061 231.015C974.738 233.45 974.367 236.026 973.021 238.224L973.061 238.215Z" fill="#2F80ED"/>
<path d="M972.271 289.959C966.862 292.422 946.273 290.717 946.273 290.717C946.273 290.717 957.022 274.744 962.432 272.281C964.997 271.321 967.869 271.271 970.473 272.142C973.077 273.013 975.219 274.74 976.47 276.977C977.721 279.213 977.987 281.794 977.215 284.2C976.444 286.607 974.692 288.661 972.311 289.95L972.271 289.959Z" fill="#2F80ED"/>
<path d="M961.902 329.022C957.032 332.269 936.374 333.739 936.374 333.739C936.374 333.739 943.974 316.359 948.853 313.103C951.201 311.816 953.999 311.368 956.694 311.848C959.39 312.328 961.789 313.7 963.419 315.696C965.049 317.691 965.792 320.164 965.502 322.629C965.212 325.094 963.91 327.371 961.852 329.013L961.902 329.022Z" fill="#2F80ED"/>
<path d="M927.975 251.79C932.325 255.596 952.573 259.546 952.573 259.546C952.573 259.546 947.573 241.408 943.264 237.593C942.258 236.576 941.031 235.757 939.659 235.187C938.287 234.617 936.8 234.308 935.289 234.279C933.779 234.25 932.278 234.502 930.881 235.019C929.483 235.536 928.219 236.307 927.166 237.285C926.114 238.262 925.296 239.425 924.763 240.7C924.231 241.975 923.995 243.335 924.071 244.696C924.147 246.057 924.532 247.389 925.204 248.609C925.876 249.83 926.819 250.912 927.975 251.79V251.79Z" fill="#2F80ED"/>
<path d="M916.486 297.572C921.896 300.034 942.484 298.329 942.484 298.329C942.484 298.329 931.735 282.356 926.325 279.894C923.76 278.933 920.888 278.883 918.284 279.754C915.68 280.625 913.538 282.352 912.287 284.589C911.036 286.826 910.77 289.406 911.542 291.813C912.313 294.219 914.065 296.273 916.446 297.563L916.486 297.572Z" fill="#2F80ED"/>
<path d="M912.086 343.453C916.956 346.7 937.614 348.17 937.614 348.17C937.614 348.17 930.015 330.79 925.135 327.534C923.991 326.621 922.65 325.934 921.195 325.515C919.741 325.095 918.205 324.954 916.687 325.099C915.169 325.245 913.701 325.674 912.376 326.359C911.051 327.044 909.9 327.971 908.994 329.079C908.088 330.188 907.448 331.455 907.114 332.799C906.781 334.143 906.762 335.535 907.057 336.886C907.353 338.237 907.957 339.518 908.831 340.647C909.706 341.776 910.831 342.729 912.136 343.444L912.086 343.453Z" fill="#2F80ED"/>
<path opacity="0.1" d="M954.973 207.947C954.973 213.412 943.974 229.259 943.974 229.259C943.974 229.259 932.975 213.412 932.975 207.947C932.863 206.586 933.064 205.219 933.564 203.931C934.065 202.643 934.855 201.463 935.884 200.463C936.914 199.463 938.161 198.665 939.548 198.12C940.934 197.574 942.431 197.293 943.944 197.293C945.456 197.293 946.953 197.574 948.34 198.12C949.726 198.665 950.974 199.463 952.003 200.463C953.032 201.463 953.822 202.643 954.323 203.931C954.824 205.219 955.024 206.586 954.913 207.947H954.973Z" fill="#2F80ED"/>
<path opacity="0.1" d="M973.061 238.215C969.771 242.806 950.973 250.734 950.973 250.734C950.973 250.734 951.313 232.055 954.603 227.464C956.276 225.458 958.73 224.098 961.471 223.659C964.212 223.221 967.035 223.736 969.372 225.101C971.708 226.466 973.384 228.579 974.061 231.015C974.738 233.45 974.367 236.026 973.021 238.224L973.061 238.215Z" fill="#2F80ED"/>
<path opacity="0.1" d="M972.271 289.959C966.862 292.422 946.273 290.717 946.273 290.717C946.273 290.717 957.022 274.744 962.432 272.281C964.997 271.321 967.869 271.271 970.473 272.142C973.077 273.013 975.219 274.74 976.47 276.977C977.721 279.213 977.987 281.794 977.215 284.2C976.444 286.607 974.692 288.661 972.311 289.95L972.271 289.959Z" fill="#2F80ED"/>
<path opacity="0.1" d="M961.902 329.022C957.032 332.269 936.374 333.739 936.374 333.739C936.374 333.739 943.974 316.359 948.853 313.103C951.201 311.816 953.999 311.368 956.694 311.848C959.39 312.328 961.789 313.7 963.419 315.696C965.049 317.691 965.792 320.164 965.502 322.629C965.212 325.094 963.91 327.371 961.852 329.013L961.902 329.022Z" fill="#2F80ED"/>
<path opacity="0.1" d="M927.975 251.79C932.325 255.596 952.573 259.546 952.573 259.546C952.573 259.546 947.573 241.408 943.264 237.593C942.258 236.576 941.031 235.757 939.659 235.187C938.287 234.617 936.8 234.308 935.289 234.279C933.779 234.25 932.278 234.502 930.881 235.019C929.483 235.536 928.219 236.307 927.166 237.285C926.114 238.262 925.296 239.425 924.763 240.7C924.231 241.975 923.995 243.335 924.071 244.696C924.147 246.057 924.532 247.389 925.204 248.609C925.876 249.83 926.819 250.912 927.975 251.79V251.79Z" fill="#2F80ED"/>
<path opacity="0.1" d="M916.486 297.572C921.896 300.034 942.484 298.329 942.484 298.329C942.484 298.329 931.735 282.356 926.325 279.894C923.76 278.933 920.888 278.883 918.284 279.754C915.68 280.625 913.538 282.352 912.287 284.589C911.036 286.826 910.77 289.406 911.542 291.813C912.313 294.219 914.065 296.273 916.446 297.563L916.486 297.572Z" fill="#2F80ED"/>
<path opacity="0.1" d="M912.086 343.453C916.956 346.7 937.614 348.17 937.614 348.17C937.614 348.17 930.015 330.79 925.135 327.534C923.991 326.621 922.65 325.934 921.195 325.515C919.741 325.095 918.205 324.954 916.687 325.099C915.169 325.245 913.701 325.674 912.376 326.359C911.051 327.044 909.9 327.971 908.994 329.079C908.088 330.188 907.448 331.455 907.114 332.799C906.781 334.143 906.762 335.535 907.057 336.886C907.353 338.237 907.957 339.518 908.831 340.647C909.706 341.776 910.831 342.729 912.136 343.444L912.086 343.453Z" fill="#2F80ED"/>
<path d="M1003.05 442.296C1003.05 442.296 988.49 397.695 1005.78 364.874C1013.13 351.147 1015.35 335.639 1012.1 320.679C1010.49 313.588 1008.17 306.644 1005.16 299.935" stroke="#535461" stroke-width="2" stroke-miterlimit="10"/>
<path d="M1015.97 279.199C1015.97 284.665 1004.97 300.512 1004.97 300.512C1004.97 300.512 993.969 284.665 993.969 279.199C993.858 277.838 994.058 276.471 994.559 275.184C995.06 273.896 995.849 272.715 996.879 271.715C997.908 270.716 999.155 269.918 1000.54 269.373C1001.93 268.827 1003.43 268.546 1004.94 268.546C1006.45 268.546 1007.95 268.827 1009.33 269.373C1010.72 269.918 1011.97 270.716 1013 271.715C1014.03 272.715 1014.82 273.896 1015.32 275.184C1015.82 276.471 1016.02 277.838 1015.91 279.199H1015.97Z" fill="#2F80ED"/>
<path d="M1034.06 309.468C1030.77 314.059 1012.01 321.978 1012.01 321.978C1012.01 321.978 1012.35 303.299 1015.64 298.708C1016.37 297.516 1017.36 296.473 1018.56 295.642C1019.75 294.812 1021.13 294.212 1022.59 293.881C1024.05 293.55 1025.58 293.494 1027.07 293.717C1028.56 293.94 1029.98 294.437 1031.24 295.177C1032.51 295.917 1033.6 296.885 1034.43 298.019C1035.27 299.153 1035.83 300.431 1036.1 301.771C1036.36 303.112 1036.31 304.487 1035.96 305.811C1035.61 307.135 1034.96 308.38 1034.06 309.468V309.468Z" fill="#2F80ED"/>
<path d="M1033.27 361.212C1027.86 363.674 1007.27 361.97 1007.27 361.97C1007.27 361.97 1018.02 345.996 1023.43 343.534C1024.72 342.832 1026.17 342.378 1027.67 342.202C1029.17 342.026 1030.69 342.13 1032.14 342.509C1033.6 342.888 1034.95 343.534 1036.11 344.405C1037.28 345.276 1038.23 346.354 1038.91 347.572C1039.59 348.791 1039.99 350.122 1040.07 351.485C1040.15 352.847 1039.93 354.21 1039.4 355.489C1038.88 356.769 1038.06 357.936 1037.01 358.919C1035.97 359.903 1034.7 360.68 1033.31 361.203L1033.27 361.212Z" fill="#2F80ED"/>
<path d="M1022.9 400.275C1018.03 403.522 997.369 404.992 997.369 404.992C997.369 404.992 1004.97 387.612 1009.85 384.356C1012.2 383.069 1014.99 382.621 1017.69 383.101C1020.38 383.581 1022.78 384.953 1024.41 386.948C1026.04 388.944 1026.79 391.417 1026.5 393.882C1026.21 396.346 1024.9 398.624 1022.85 400.266L1022.9 400.275Z" fill="#2F80ED"/>
<path d="M988.97 323.042C993.319 326.848 1013.57 330.799 1013.57 330.799C1013.57 330.799 1008.57 312.661 1004.26 308.846C1002.13 307.231 999.403 306.403 996.625 306.529C993.847 306.655 991.226 307.725 989.288 309.525C987.35 311.324 986.24 313.719 986.181 316.227C986.122 318.735 987.118 321.17 988.97 323.042V323.042Z" fill="#2F80ED"/>
<path d="M977.481 368.824C982.89 371.287 1003.48 369.582 1003.48 369.582C1003.48 369.582 992.729 353.609 987.32 351.147C984.755 350.186 981.882 350.136 979.278 351.007C976.674 351.878 974.532 353.605 973.282 355.842C972.031 358.079 971.765 360.659 972.536 363.065C973.308 365.472 975.06 367.526 977.441 368.815L977.481 368.824Z" fill="#2F80ED"/>
<path d="M973.081 414.706C977.951 417.953 998.609 419.423 998.609 419.423C998.609 419.423 991.009 402.043 986.13 398.787C984.986 397.874 983.644 397.186 982.19 396.767C980.735 396.348 979.2 396.207 977.682 396.352C976.163 396.498 974.695 396.927 973.371 397.612C972.046 398.297 970.894 399.223 969.988 400.332C969.083 401.441 968.443 402.708 968.109 404.052C967.776 405.396 967.756 406.788 968.052 408.139C968.347 409.49 968.952 410.771 969.826 411.9C970.701 413.029 971.826 413.982 973.131 414.697L973.081 414.706Z" fill="#2F80ED"/>
<path opacity="0.1" d="M1015.97 279.199C1015.97 284.665 1004.97 300.512 1004.97 300.512C1004.97 300.512 993.969 284.665 993.969 279.199C993.858 277.838 994.058 276.471 994.559 275.184C995.06 273.896 995.849 272.715 996.879 271.715C997.908 270.716 999.155 269.918 1000.54 269.373C1001.93 268.827 1003.43 268.546 1004.94 268.546C1006.45 268.546 1007.95 268.827 1009.33 269.373C1010.72 269.918 1011.97 270.716 1013 271.715C1014.03 272.715 1014.82 273.896 1015.32 275.184C1015.82 276.471 1016.02 277.838 1015.91 279.199H1015.97Z" fill="#2F80ED"/>
<path opacity="0.1" d="M1034.06 309.468C1030.77 314.059 1012.01 321.978 1012.01 321.978C1012.01 321.978 1012.35 303.299 1015.64 298.708C1016.37 297.516 1017.36 296.473 1018.56 295.642C1019.75 294.812 1021.13 294.212 1022.59 293.881C1024.05 293.55 1025.58 293.494 1027.07 293.717C1028.56 293.94 1029.98 294.437 1031.24 295.177C1032.51 295.917 1033.6 296.885 1034.43 298.019C1035.27 299.153 1035.83 300.431 1036.1 301.771C1036.36 303.112 1036.31 304.487 1035.96 305.811C1035.61 307.135 1034.96 308.38 1034.06 309.468V309.468Z" fill="#2F80ED"/>
<path opacity="0.1" d="M1033.27 361.212C1027.86 363.674 1007.27 361.97 1007.27 361.97C1007.27 361.97 1018.02 345.996 1023.43 343.534C1024.72 342.832 1026.17 342.378 1027.67 342.202C1029.17 342.026 1030.69 342.13 1032.14 342.509C1033.6 342.888 1034.95 343.534 1036.11 344.405C1037.28 345.276 1038.23 346.354 1038.91 347.572C1039.59 348.791 1039.99 350.122 1040.07 351.485C1040.15 352.847 1039.93 354.21 1039.4 355.489C1038.88 356.769 1038.06 357.936 1037.01 358.919C1035.97 359.903 1034.7 360.68 1033.31 361.203L1033.27 361.212Z" fill="#2F80ED"/>
<path opacity="0.1" d="M1022.9 400.275C1018.03 403.522 997.369 404.992 997.369 404.992C997.369 404.992 1004.97 387.612 1009.85 384.356C1012.2 383.069 1014.99 382.621 1017.69 383.101C1020.38 383.581 1022.78 384.953 1024.41 386.948C1026.04 388.944 1026.79 391.417 1026.5 393.882C1026.21 396.346 1024.9 398.624 1022.85 400.266L1022.9 400.275Z" fill="#2F80ED"/>
<path opacity="0.1" d="M988.97 323.042C993.319 326.848 1013.57 330.799 1013.57 330.799C1013.57 330.799 1008.57 312.661 1004.26 308.846C1002.13 307.231 999.403 306.403 996.625 306.529C993.847 306.655 991.226 307.725 989.288 309.525C987.35 311.324 986.24 313.719 986.181 316.227C986.122 318.735 987.118 321.17 988.97 323.042V323.042Z" fill="#2F80ED"/>
<path opacity="0.1" d="M977.481 368.824C982.89 371.287 1003.48 369.582 1003.48 369.582C1003.48 369.582 992.729 353.609 987.32 351.147C984.755 350.186 981.882 350.136 979.278 351.007C976.674 351.878 974.532 353.605 973.282 355.842C972.031 358.079 971.765 360.659 972.536 363.065C973.308 365.472 975.06 367.526 977.441 368.815L977.481 368.824Z" fill="#2F80ED"/>
<path opacity="0.1" d="M973.081 414.706C977.951 417.953 998.609 419.423 998.609 419.423C998.609 419.423 991.009 402.043 986.13 398.787C984.986 397.874 983.644 397.186 982.19 396.767C980.735 396.348 979.2 396.207 977.682 396.352C976.163 396.498 974.695 396.927 973.371 397.612C972.046 398.297 970.894 399.223 969.988 400.332C969.083 401.441 968.443 402.708 968.109 404.052C967.776 405.396 967.756 406.788 968.052 408.139C968.347 409.49 968.952 410.771 969.826 411.9C970.701 413.029 971.826 413.982 973.131 414.697L973.081 414.706Z" fill="#2F80ED"/>
<path opacity="0.1" d="M613.896 591.413C885.489 567.522 1102.2 516.187 1097.94 476.753C1093.68 437.32 870.05 424.72 598.456 448.611C326.863 472.502 110.149 523.837 114.412 563.271C118.676 602.704 342.302 615.304 613.896 591.413Z" fill="#2F80ED"/>
<path d="M1055.14 483.036C1073.63 448.853 1069.81 393.213 1067.84 374.326C1067.41 370.195 1067.07 367.823 1067.07 367.823C1067.07 367.823 1050.77 365.505 1056.78 347.71C1059.72 338.997 1049.28 334.181 1037.89 331.538C1029.74 329.78 1021.42 328.72 1013.05 328.373L855.171 319.579C833.523 288.588 790.927 293.567 790.927 293.567C790.927 293.567 752.93 290.004 725.993 289.635C721.905 286.386 717.423 283.563 712.634 281.22C709.78 279.673 706.741 278.423 703.575 277.495C699.725 276.493 695.669 276.318 691.731 276.983C687.793 277.649 684.083 279.137 680.897 281.328C679.344 282.335 678.079 283.662 677.207 285.197C676.871 285.895 676.62 286.624 676.457 287.371C676.051 288.644 675.717 289.936 675.457 291.24C675.223 291.868 674.886 292.461 674.457 292.999C673.377 294.379 671.518 295.416 671.278 297.085C671.272 297.181 671.272 297.277 671.278 297.373C671.08 297.692 670.948 298.04 670.888 298.401C670.815 299.144 670.993 299.889 671.398 300.539C671.458 300.647 671.528 300.746 671.598 300.846C670.268 302.582 669.183 304.46 668.368 306.438C667.998 306.619 667.641 306.821 667.298 307.042L666.998 307.24V307.791L666.828 307.908L666.458 316.792L666.668 316.936C666.971 321.08 668.357 325.101 670.714 328.669C673.07 332.237 676.33 335.251 680.227 337.464C680.357 338.032 680.477 338.61 680.597 339.214C681.146 342.127 681.394 345.08 681.337 348.035H681.167C676.467 346.231 668.428 348.883 661.518 351.976H572.006C589.465 331.719 610.823 316.007 610.823 316.007V298.203C595.564 297.518 461.516 355.602 432.129 368.428L430.829 368.996L279.792 373.217C252.434 373.064 228.516 376.689 207.798 382.597C173.177 392.406 142.066 410.335 117.646 434.548C99.8077 452.208 91.9884 466.802 91.9884 466.802L92.1584 468.028L91.9884 468.344L92.2284 468.533L96.298 497.503L99.0978 517.436C79.6395 528.782 104.847 533.328 104.847 533.328C128.845 551.89 167.452 551.123 167.452 551.123C176.881 562.731 204.329 561.18 204.329 561.18H348.406C350.65 549.248 353.655 537.444 357.405 525.824C363.555 565.771 398.501 596.373 440.678 596.373C443.806 596.372 446.932 596.2 450.037 595.859C453.142 596.2 456.268 596.372 459.396 596.373C502.062 596.373 537.319 565.049 542.869 524.435H549.918C548.602 533.509 546.315 542.447 543.089 551.123C672.587 517.084 913.576 500.84 913.576 500.84C914.576 492.272 915.676 483.992 916.866 476.046C926.795 498.279 949.303 513.801 975.501 513.801C977.881 513.798 980.258 513.666 982.62 513.404C984.982 513.666 987.36 513.798 989.74 513.801C1020.85 513.801 1046.73 491.911 1052.57 462.887C1053.35 468.01 1053.79 473.168 1053.89 478.337C1052.78 483.262 1051.81 486.41 1051.68 486.851C1052.46 485.565 1053.2 484.248 1053.9 482.901C1053.9 483.424 1053.9 483.965 1053.9 484.506C1053.66 485.408 1053.49 485.913 1053.44 486.085L1053.88 485.345C1053.88 485.742 1053.88 486.13 1053.88 486.527C1053.78 486.563 1054.31 485.264 1055.14 483.036Z" fill="url(#paint0_linear)"/>
<path d="M1040.04 360.211H743.161V468.236H1040.04V360.211Z" fill="#6F7D95"/>
<path d="M667.678 309.622L709.844 394.827L793.347 390.263L796.717 355.268L799.246 314.185L681.177 306.573L667.678 309.622Z" fill="#4B5C7A"/>
<path d="M667.678 309.621C667.678 309.621 683.676 295.93 703.105 292.882C722.533 289.833 787.447 295.921 787.447 295.921L796.727 310.352L794.987 317.225L667.678 309.621Z" fill="#2F80ED"/>
<path d="M826.654 353.365H527.25V432.483H826.654V353.365Z" fill="#4B5C7A"/>
<path d="M752.99 407.193C760.9 383.337 745.131 367.661 745.131 367.661L718.993 351.21C718.972 351.266 718.945 351.32 718.913 351.372C715.514 347.778 713.081 343.525 711.804 338.943C711.724 338.655 711.654 338.357 711.574 338.041C713.963 336.44 716.056 334.507 717.773 332.314C722.033 329.96 723.933 326.172 724.653 322.393C727.393 318.725 729.576 314.742 731.142 310.55C731.401 309.873 731.621 309.183 731.802 308.485C732.306 307.185 732.53 305.811 732.462 304.435C732.249 302.904 731.684 301.429 730.802 300.106C726.403 292.891 718.483 287.867 710.454 283.772C707.647 282.252 704.659 281.023 701.545 280.11C697.76 279.126 693.772 278.954 689.9 279.609C686.028 280.264 682.38 281.726 679.247 283.88C677.719 284.871 676.475 286.176 675.617 287.686C675.286 288.373 675.038 289.09 674.877 289.824C674.489 291.077 674.172 292.348 673.927 293.63C673.709 294.243 673.393 294.823 672.987 295.353C671.917 296.706 670.098 297.725 669.858 299.376C669.852 299.472 669.852 299.568 669.858 299.664C669.665 299.977 669.536 300.32 669.478 300.674C669.404 301.404 669.578 302.137 669.978 302.776C670.038 302.884 670.108 302.983 670.178 303.082C668.869 304.79 667.801 306.639 666.998 308.584C666.631 308.763 666.277 308.962 665.938 309.18L665.648 309.369V309.91L665.478 310.027L665.108 318.767L665.308 318.911C665.603 322.988 666.965 326.943 669.282 330.453C671.599 333.964 674.805 336.929 678.637 339.106C678.767 339.665 678.887 340.233 678.997 340.828C679.601 343.975 679.842 347.17 679.717 350.362C679.677 350.086 679.677 349.808 679.717 349.532C672.487 346.583 656.719 354.736 650.369 358.344C649.407 358.755 648.509 359.28 647.7 359.904L647.59 359.976C643.22 363.169 634.591 372.044 627.741 394.854C618.242 426.683 619.232 433.899 612.313 441.277C605.393 448.655 598.524 500.633 598.524 500.633L612.453 504.015L614.233 498.856C630.791 512.475 677.157 519.032 677.157 519.032L678.577 515.055C685.686 517.364 697.575 513.855 697.575 513.855C714.954 508.317 721.463 494.265 734.072 475.731C746.681 457.196 752.99 407.193 752.99 407.193ZM682.897 503.095L714.994 413.29C717.903 427.234 705.065 449.196 703.925 463.555C703.215 472.79 691.296 491.145 682.897 503.095Z" fill="url(#paint1_linear)"/>
<path d="M723.053 312.697C723.053 312.697 728.642 331.899 712.054 335.245C695.465 338.592 706.394 326.614 706.394 326.614L722.393 312.553L723.053 312.697Z" fill="#472727"/>
<path d="M653.699 358.461C653.699 358.461 641.36 362.971 632.291 393.348C623.222 423.725 624.122 430.58 617.592 437.642C611.063 444.704 604.373 494.256 604.373 494.256L617.432 497.431L628.801 464.312L660.068 376.825L653.699 358.461Z" fill="#DDE0E4"/>
<path opacity="0.05" d="M653.699 358.461C653.699 358.461 641.36 362.971 632.291 393.348C623.222 423.725 624.122 430.58 617.592 437.642C611.063 444.704 604.373 494.256 604.373 494.256L617.432 497.431L628.801 464.312L660.068 376.825L653.699 358.461Z" fill="black"/>
<path d="M722.213 355.034C722.213 355.034 670.558 378.719 678.117 363.268C681.857 355.638 681.717 347.728 680.627 341.622C680.005 338.025 678.914 334.508 677.377 331.142C677.377 331.142 712.494 306.086 710.434 326.542C709.941 330.945 710.279 335.391 711.434 339.692C714.474 350.542 722.213 355.034 722.213 355.034Z" fill="#DB8B8B"/>
<path opacity="0.1" d="M711.434 339.728C708.112 342.134 704.206 343.797 700.035 344.581C695.864 345.365 691.547 345.247 687.436 344.238C685.032 343.655 682.727 342.778 680.587 341.631C679.965 338.034 678.874 334.517 677.337 331.151C677.337 331.151 712.454 306.095 710.394 326.551C709.911 330.965 710.262 335.42 711.434 339.728Z" fill="black"/>
<path d="M720.986 325.819C724.868 312.813 716.326 299.43 701.908 295.928C687.489 292.426 672.652 300.131 668.77 313.137C664.888 326.143 673.429 339.525 687.848 343.027C702.267 346.529 717.103 338.825 720.986 325.819Z" fill="#DB8B8B"/>
<path opacity="0.1" d="M681.297 307.583C680.555 307.992 679.729 308.261 678.869 308.375C678.009 308.488 677.132 308.444 676.292 308.244C675.451 308.045 674.664 307.694 673.978 307.213C673.291 306.732 672.72 306.131 672.297 305.446C671.926 304.834 671.766 304.137 671.837 303.443C672.067 301.874 673.787 300.9 674.837 299.601C676.467 297.5 676.157 294.622 677.337 292.286C678.149 290.86 679.32 289.624 680.757 288.679C683.679 286.618 687.1 285.21 690.741 284.571C694.382 283.931 698.139 284.078 701.705 284.999C704.623 285.857 707.421 287.016 710.044 288.453C717.563 292.322 724.973 297.058 729.042 303.939C729.867 305.202 730.391 306.606 730.582 308.061C730.627 309.633 730.321 311.198 729.682 312.661C728.178 316.703 726.083 320.546 723.453 324.089C722.573 323.103 721.468 322.3 720.213 321.735C719.58 321.464 718.868 321.381 718.179 321.496C717.49 321.611 716.858 321.918 716.374 322.375C715.504 323.376 714.974 325.288 713.654 324.837C712.794 324.549 712.804 323.475 712.844 322.645C713.024 319.038 710.844 315.637 707.914 313.202C704.985 310.767 701.355 309.162 697.775 307.583C695.205 306.447 691.776 303.84 688.956 303.38C685.456 302.794 683.806 306.185 681.297 307.583Z" fill="black"/>
<path d="M681.667 306.347C680.925 306.756 680.099 307.026 679.239 307.139C678.379 307.253 677.502 307.209 676.662 307.009C675.821 306.809 675.034 306.458 674.348 305.977C673.661 305.496 673.09 304.895 672.667 304.21C672.296 303.599 672.136 302.901 672.207 302.208C672.437 300.638 674.157 299.664 675.207 298.365C676.837 296.264 676.527 293.387 677.707 291.051C678.519 289.624 679.69 288.388 681.127 287.443C684.049 285.382 687.47 283.975 691.111 283.335C694.752 282.696 698.509 282.842 702.075 283.763C704.992 284.622 707.791 285.781 710.414 287.217C717.933 291.087 725.343 295.822 729.412 302.704C730.237 303.966 730.761 305.37 730.952 306.826C730.997 308.398 730.691 309.962 730.052 311.425C728.548 315.467 726.453 319.31 723.823 322.853C722.943 321.867 721.838 321.064 720.583 320.499C719.95 320.229 719.238 320.145 718.549 320.26C717.86 320.375 717.228 320.683 716.743 321.139C715.874 322.14 715.344 324.052 714.024 323.601C713.164 323.313 713.174 322.24 713.214 321.41C713.394 317.802 711.214 314.402 708.284 311.967C705.354 309.531 701.725 307.926 698.145 306.347C695.575 305.211 692.146 302.604 689.326 302.144C685.826 301.549 684.176 304.949 681.667 306.347Z" fill="#472727"/>
<path d="M695.825 358.263C695.825 358.263 717.213 354.484 718.143 351.39L742.601 366.966C742.601 366.966 757.32 381.839 749.791 404.604C749.791 404.604 743.661 452.307 731.742 470.012C719.823 487.717 712.974 510.654 696.645 516.011C696.645 516.011 680.947 506.883 675.767 506.992C675.767 506.992 702.355 472.24 703.495 458.558C704.635 444.875 716.783 423.896 714.124 410.62L678.127 511.546C678.127 511.546 620.132 503.429 614.253 486.067C614.253 486.067 619.252 479.293 618.322 472.43C617.392 465.566 640.2 413.93 640.2 413.93L651.119 360.085C651.119 360.085 672.717 346.474 681.317 350.01C681.277 349.956 679.717 356.675 695.825 358.263Z" fill="#DDE0E4"/>
<g opacity="0.1">
<path opacity="0.1" d="M703.615 316.395C698.335 309.901 688.266 315.232 686.616 316.16L684.026 315.926C681.767 313.707 674.837 307.809 668.328 312.147L668.048 312.336L667.658 320.661L667.938 320.86C669.818 322.169 671.95 323.154 674.227 323.764C675.669 324.146 677.19 324.214 678.667 323.962C679.759 323.735 680.783 323.294 681.666 322.671C682.549 322.047 683.269 321.257 683.776 320.355L685.126 320.436L686.126 320.264C686.326 321.223 686.751 322.133 687.372 322.933C687.992 323.732 688.795 324.403 689.726 324.9C694.195 327.182 700.725 324.9 700.995 324.855L701.335 324.738L703.735 316.684L703.615 316.395ZM700.225 323.719C698.895 324.125 693.876 325.459 690.506 323.719C689.667 323.244 688.96 322.602 688.44 321.842C687.92 321.082 687.6 320.224 687.506 319.335L687.386 318.677L685.196 319.083L682.996 319.011L682.786 319.389C682.385 320.209 681.781 320.934 681.02 321.509C680.259 322.085 679.361 322.495 678.397 322.709C674.627 323.439 670.268 320.805 669.128 320.057L669.458 313.022C675.117 309.585 681.357 315.159 683.156 316.981L683.346 317.171L686.996 317.495L687.216 317.36C687.316 317.306 696.385 311.813 701.555 316.233C701.811 316.447 702.049 316.679 702.265 316.927L700.225 323.719Z" fill="black"/>
<path opacity="0.1" d="M719.993 320.58L702.995 319.308L701.595 319.065L702.225 316.936C702.009 316.688 701.771 316.456 701.515 316.242L703.575 316.422L717.483 317.649L719.993 320.58Z" fill="black"/>
</g>
<path d="M703.795 315.818C698.515 309.324 688.446 314.654 686.796 315.583L684.206 315.349C681.947 313.13 675.017 307.231 668.508 311.57L668.228 311.759L667.838 320.084L668.118 320.282C669.998 321.592 672.13 322.576 674.407 323.187C675.849 323.569 677.37 323.637 678.847 323.385C679.939 323.158 680.963 322.717 681.846 322.093C682.729 321.47 683.449 320.679 683.956 319.777L685.306 319.858L686.306 319.687C686.506 320.646 686.931 321.556 687.552 322.355C688.172 323.155 688.975 323.826 689.906 324.323C694.375 326.605 700.905 324.323 701.175 324.278L701.515 324.161L703.915 316.106L703.795 315.818ZM700.405 323.141C699.075 323.547 694.055 324.882 690.686 323.141C689.847 322.667 689.14 322.025 688.62 321.265C688.1 320.505 687.78 319.647 687.686 318.758L687.566 318.1L685.376 318.506L683.206 318.379L682.996 318.758C682.602 319.582 682.003 320.313 681.245 320.895C680.487 321.477 679.592 321.894 678.627 322.113C674.857 322.844 670.498 320.21 669.358 319.462L669.688 312.427C675.347 308.99 681.587 314.564 683.386 316.386L683.576 316.575L687.226 316.9L687.446 316.765C687.546 316.711 696.615 311.218 701.785 315.637C702.041 315.852 702.279 316.084 702.495 316.332L700.405 323.141Z" fill="#472727"/>
<path d="M720.153 320.003L703.215 318.731L701.815 318.488L702.445 316.359C702.229 316.111 701.991 315.879 701.735 315.664L703.795 315.845L717.703 317.071L720.153 320.003Z" fill="#472727"/>
<path d="M603.993 414.985H307.12V523.01H603.993V414.985Z" fill="#6F7D95"/>
<path d="M442.988 593.758C488.74 593.758 525.83 557.144 525.83 511.979C525.83 466.814 488.74 430.201 442.988 430.201C397.235 430.201 360.145 466.814 360.145 511.979C360.145 557.144 397.235 593.758 442.988 593.758Z" fill="#4B5C7A"/>
<path opacity="0.05" d="M442.988 593.758C488.74 593.758 525.83 557.144 525.83 511.979C525.83 466.814 488.74 430.201 442.988 430.201C397.235 430.201 360.145 466.814 360.145 511.979C360.145 557.144 397.235 593.758 442.988 593.758Z" fill="black"/>
<path d="M461.396 593.758C507.149 593.758 544.239 557.144 544.239 511.979C544.239 466.814 507.149 430.201 461.396 430.201C415.643 430.201 378.553 466.814 378.553 511.979C378.553 557.144 415.643 593.758 461.396 593.758Z" fill="#4B5C7A"/>
<path opacity="0.05" d="M459.556 545.603C479.889 545.603 496.373 530.735 496.373 512.394C496.373 494.053 479.889 479.185 459.556 479.185C439.223 479.185 422.739 494.053 422.739 512.394C422.739 530.735 439.223 545.603 459.556 545.603Z" fill="black"/>
<path d="M459.556 522.361C465.658 522.361 470.605 517.899 470.605 512.394C470.605 506.89 465.658 502.428 459.556 502.428C453.454 502.428 448.507 506.89 448.507 512.394C448.507 517.899 453.454 522.361 459.556 522.361Z" stroke="#6F7D95" stroke-width="2" stroke-miterlimit="10"/>
<path d="M459.556 497.449C461.08 497.449 462.316 496.335 462.316 494.96C462.316 493.585 461.08 492.471 459.556 492.471C458.032 492.471 456.796 493.585 456.796 494.96C456.796 496.335 458.032 497.449 459.556 497.449Z" fill="#6F7D95"/>
<path d="M476.432 501.674C477.599 500.79 477.751 499.22 476.772 498.167C475.792 497.114 474.051 496.976 472.884 497.86C471.716 498.744 471.564 500.314 472.544 501.367C473.523 502.42 475.264 502.558 476.432 501.674Z" fill="#6F7D95"/>
<path d="M483.021 513.728C483.286 512.374 482.283 511.083 480.782 510.845C479.281 510.606 477.85 511.51 477.585 512.864C477.321 514.218 478.323 515.509 479.824 515.748C481.325 515.986 482.756 515.082 483.021 513.728Z" fill="#6F7D95"/>
<path d="M473.793 528.046C475.113 527.359 475.566 525.836 474.803 524.646C474.041 523.455 472.354 523.047 471.034 523.735C469.714 524.422 469.261 525.944 470.023 527.135C470.786 528.326 472.473 528.734 473.793 528.046Z" fill="#6F7D95"/>
<path d="M459.263 529.394C459.784 528.102 459.046 526.673 457.614 526.203C456.181 525.733 454.598 526.399 454.076 527.691C453.555 528.983 454.294 530.411 455.726 530.882C457.158 531.352 458.742 530.686 459.263 529.394Z" fill="#6F7D95"/>
<path d="M445.235 521.706C446.667 521.236 447.406 519.807 446.884 518.515C446.363 517.223 444.779 516.557 443.347 517.027C441.915 517.498 441.176 518.926 441.698 520.218C442.219 521.51 443.803 522.176 445.235 521.706Z" fill="#6F7D95"/>
<path d="M446.522 506.154C447.284 504.964 446.832 503.441 445.512 502.754C444.192 502.066 442.504 502.474 441.742 503.665C440.98 504.855 441.432 506.378 442.752 507.065C444.072 507.753 445.76 507.345 446.522 506.154Z" fill="#6F7D95"/>
<path d="M1056.65 448.781C1053.82 466.405 1045.95 485.697 1045.95 485.697C1046.01 484.494 1046.04 483.307 1046.05 482.134C1046.05 480.619 1046.05 479.122 1046.05 477.625C1045.05 429.047 1015.71 399.075 996.779 384.726C991.859 380.944 986.568 377.575 980.97 374.66H1032.42C1032.42 374.66 1052.65 411.937 1056.87 430.192C1058.09 435.315 1057.75 441.926 1056.65 448.781Z" fill="#FF4D52"/>
<path opacity="0.05" d="M1056.65 448.781C1053.82 466.405 1045.95 485.697 1045.95 485.697C1046.01 484.494 1046.04 483.307 1046.05 482.134C1046.05 480.619 1046.05 479.122 1046.05 477.625C1045.05 429.047 1015.71 399.075 996.779 384.726C991.859 380.944 986.568 377.575 980.97 374.66H1032.42C1032.42 374.66 1052.65 411.937 1056.87 430.192C1058.09 435.315 1057.75 441.926 1056.65 448.781Z" fill="black"/>
<path d="M968.941 512.557C1003.74 512.557 1031.95 484.71 1031.95 450.359C1031.95 416.009 1003.74 388.162 968.941 388.162C934.145 388.162 905.937 416.009 905.937 450.359C905.937 484.71 934.145 512.557 968.941 512.557Z" fill="#4B5C7A"/>
<path opacity="0.05" d="M968.941 512.557C1003.74 512.557 1031.95 484.71 1031.95 450.359C1031.95 416.009 1003.74 388.162 968.941 388.162C934.145 388.162 905.937 416.009 905.937 450.359C905.937 484.71 934.145 512.557 968.941 512.557Z" fill="black"/>
<path d="M982.94 512.557C1017.74 512.557 1045.94 484.71 1045.94 450.359C1045.94 416.009 1017.74 388.162 982.94 388.162C948.144 388.162 919.936 416.009 919.936 450.359C919.936 484.71 948.144 512.557 982.94 512.557Z" fill="#4B5C7A"/>
<path opacity="0.05" d="M981.54 475.929C997.003 475.929 1009.54 464.622 1009.54 450.675C1009.54 436.727 997.003 425.421 981.54 425.421C966.078 425.421 953.543 436.727 953.543 450.675C953.543 464.622 966.078 475.929 981.54 475.929Z" fill="black"/>
<path d="M981.54 458.251C986.179 458.251 989.94 454.859 989.94 450.675C989.94 446.491 986.179 443.099 981.54 443.099C976.901 443.099 973.141 446.491 973.141 450.675C973.141 454.859 976.901 458.251 981.54 458.251Z" stroke="#6F7D95" stroke-width="2" stroke-miterlimit="10"/>
<path d="M981.54 439.311C982.7 439.311 983.64 438.463 983.64 437.417C983.64 436.37 982.7 435.522 981.54 435.522C980.381 435.522 979.44 436.37 979.44 437.417C979.44 438.463 980.381 439.311 981.54 439.311Z" fill="#6F7D95"/>
<path d="M994.382 442.522C995.27 441.849 995.386 440.655 994.641 439.853C993.895 439.052 992.571 438.947 991.683 439.62C990.794 440.292 990.678 441.487 991.424 442.288C992.169 443.09 993.494 443.194 994.382 442.522Z" fill="#6F7D95"/>
<path d="M999.386 451.697C999.587 450.667 998.824 449.685 997.682 449.503C996.54 449.322 995.451 450.009 995.25 451.04C995.048 452.07 995.811 453.052 996.953 453.234C998.095 453.415 999.184 452.728 999.386 451.697Z" fill="#6F7D95"/>
<path d="M992.377 462.585C993.381 462.062 993.725 460.903 993.145 459.997C992.565 459.091 991.281 458.781 990.277 459.304C989.272 459.827 988.928 460.986 989.508 461.891C990.088 462.797 991.372 463.108 992.377 462.585Z" fill="#6F7D95"/>
<path d="M981.323 463.607C981.719 462.624 981.157 461.537 980.068 461.179C978.978 460.821 977.773 461.328 977.376 462.311C976.98 463.294 977.542 464.381 978.631 464.739C979.721 465.096 980.926 464.59 981.323 463.607Z" fill="#6F7D95"/>
<path d="M970.649 457.752C971.739 457.394 972.301 456.307 971.904 455.324C971.508 454.341 970.303 453.834 969.213 454.192C968.123 454.55 967.561 455.637 967.958 456.62C968.355 457.603 969.56 458.11 970.649 457.752Z" fill="#6F7D95"/>
<path d="M971.641 445.927C972.221 445.021 971.877 443.863 970.872 443.34C969.868 442.817 968.584 443.127 968.004 444.033C967.424 444.939 967.768 446.097 968.772 446.62C969.777 447.143 971.061 446.833 971.641 445.927Z" fill="#6F7D95"/>
<path d="M107.667 520.349L100.048 466.332H190.29L236.676 503.609L213.908 551.538C213.908 551.538 122.046 537.847 107.667 520.349Z" fill="#FF4D52"/>
<path opacity="0.05" d="M236.706 503.609L213.938 551.538C213.938 551.538 122.046 537.847 107.667 520.349L107.337 517.995L100.338 468.046L100.268 467.55L100.098 466.342H190.34L236.706 503.609Z" fill="black"/>
<path d="M610.333 300.494V317.991C610.333 317.991 563.697 352.265 552.598 384.599C550.661 389.85 549.929 395.401 550.448 400.915C554.668 436.668 429.019 371.999 429.019 371.999L434.608 369.546C463.496 356.982 595.324 299.808 610.333 300.494Z" fill="#7597CE"/>
<path d="M716.604 384.942C716.604 384.942 760.28 365.586 767.289 351.264C768.229 349.343 769.119 347.404 770.159 345.518C774.488 337.663 783.588 319.236 779.008 310.388C773.109 298.979 793.347 311.912 793.347 311.912L781.538 365.911L752.86 380.342L715.754 384.942" fill="#FF4D52"/>
<path opacity="0.05" d="M716.604 384.942C716.604 384.942 760.28 365.586 767.289 351.264C768.229 349.343 769.119 347.404 770.159 345.518C774.488 337.663 783.588 319.236 779.008 310.388C773.109 298.979 793.347 311.912 793.347 311.912L781.538 365.911L752.86 380.342L715.754 384.942" fill="black"/>
<path opacity="0.05" d="M236.706 503.609L213.938 551.538C213.938 551.538 122.046 537.847 107.667 520.349L107.337 517.995C107.707 517.77 108.097 517.535 108.507 517.31C108.507 517.31 136.335 537.089 199.599 541.662C199.599 541.662 237.596 514.27 175.981 483.848C175.981 483.848 122.386 485.363 100.308 468.055L100.068 467.875L100.238 467.559C100.384 467.301 100.621 466.898 100.948 466.351H190.31L236.706 503.609Z" fill="black"/>
<path opacity="0.05" d="M550.448 400.906C554.668 436.668 429.019 371.999 429.019 371.999L434.608 369.546C438.308 373.1 453.077 385.086 482.604 383.788C501.602 382.949 530.45 383.715 552.648 384.59C550.694 389.838 549.945 395.389 550.448 400.906V400.906Z" fill="black"/>
<path opacity="0.05" d="M604.003 414.985V523.01H548.848C552.488 497.882 550.388 461.255 515.011 440.258C501.817 432.478 486.496 428.137 470.74 427.714C454.983 427.291 439.404 430.801 425.719 437.858C402.531 449.8 376.603 474.08 360.125 523.01H307.13V414.985H604.003Z" fill="black"/>
<path opacity="0.05" d="M1056.65 448.781C1054.57 460.704 1051.23 472.285 1046.06 482.152C1045.4 483.481 1044.67 484.777 1043.88 486.04C1044.01 485.598 1044.96 482.513 1046.06 477.661C1051.42 454.03 1060.59 388.64 999.159 384.906C998.359 384.861 997.569 384.816 996.779 384.789C991.862 380.985 986.571 377.595 980.97 374.66H1032.42C1032.42 374.66 1052.65 411.937 1056.87 430.192C1058.09 435.315 1057.75 441.926 1056.65 448.781Z" fill="black"/>
<path d="M1045.55 485.3C1046.35 482.694 1074.85 388.676 1000.83 384.175C925.765 379.612 916.486 430.58 908.057 499.812C908.057 499.812 671.078 515.786 543.709 549.265C543.709 549.265 574.286 473.683 516.711 439.5C503.516 431.72 488.196 427.38 472.44 426.956C456.683 426.533 441.104 430.044 427.419 437.101C399.021 451.73 366.494 484.903 352.266 559.151H210.558C210.558 559.151 183.56 560.675 174.291 549.229C174.291 549.229 136.295 549.987 112.727 531.732C112.727 531.732 87.4288 527.168 107.667 515.758C107.667 515.758 136.345 535.538 199.599 540.111C199.599 540.111 237.596 512.719 175.981 482.297C175.981 482.297 121.986 483.821 100.078 466.323C100.078 466.323 107.767 451.974 125.316 434.611C149.318 410.796 179.901 393.157 213.938 383.499C236.873 377.103 260.778 373.993 284.781 374.281L433.638 370.096C433.638 370.096 448.017 386.836 482.554 385.312C517.091 383.788 584.605 387.594 584.605 387.594H585.275L724.183 381.92C728.172 381.413 732.117 380.659 735.992 379.666C756.13 374.732 794.327 359.769 787.437 317.982L1005.88 330.159C1014.11 330.5 1022.29 331.542 1030.31 333.27C1041.52 335.868 1051.78 340.612 1048.89 349.18C1042.99 366.678 1059.01 368.96 1059.01 368.96C1059.01 368.96 1059.35 371.296 1059.77 375.354C1061.77 394.493 1065.7 452.037 1045.55 485.3Z" fill="#2F80ED"/>
<path opacity="0.05" d="M377.553 401.673C377.553 401.673 286.461 402.43 226.567 450.377H260.304C260.304 450.377 354.765 428.316 377.533 410.818L377.553 401.673Z" fill="black"/>
<path d="M376.703 400.906C376.703 400.906 285.611 401.664 225.717 449.611H259.454C259.454 449.611 353.915 427.549 376.683 410.052L376.703 400.906Z" fill="#FFEC9F"/>
<path opacity="0.05" d="M214.778 384.266V404.712L138.044 436.668L126.165 435.378C150.165 411.564 180.744 393.926 214.778 384.266V384.266Z" fill="black"/>
<path d="M213.928 383.508V403.955L137.185 435.901L125.306 434.611C149.309 410.799 179.892 393.164 213.928 383.508V383.508Z" fill="#FFEC9F"/>
<path opacity="0.05" d="M322.728 476.227C322.728 476.227 281.402 499.046 277.182 549.283H300.8C300.8 549.283 310.079 494.509 337.067 476.227H322.728Z" fill="black"/>
<path opacity="0.05" d="M811.065 477.751L596.834 500.57C596.834 500.57 582.665 419.215 585.285 387.567L724.193 381.893C728.177 381.394 732.12 380.65 735.992 379.666V387.215L840.573 364.396C840.573 364.396 858.291 387.973 811.065 477.751Z" fill="black"/>
<path d="M787.447 295.921C787.447 295.921 832.993 290.6 853.232 325.595L788.097 323.331L787.447 295.921Z" fill="#2F80ED"/>
<path opacity="0.05" d="M850.072 337.861C848.282 342.921 849.632 348.486 860.001 352.337C868.63 355.548 878.749 351.832 881.699 343.85C883.419 339.196 882.239 333.929 872.94 329.644C863.641 325.36 853.202 329.022 850.072 337.861Z" fill="black"/>
<path d="M102 478C102 478 156.142 486.486 195 483.274" stroke="#FF4D52" stroke-miterlimit="10"/>
<path d="M103.587 491.37C103.587 491.37 138.514 515.668 209.108 510.022" stroke="#2F80ED" stroke-miterlimit="10"/>
<path d="M105.197 502.816C105.197 502.816 139.844 529.937 211.038 521.341" stroke="#FF4D52" stroke-miterlimit="10"/>
<path opacity="0.05" d="M850.622 321.509C850.622 321.509 822.444 343.453 796.727 353.374C796.727 353.374 835.783 359.643 850.622 321.509Z" fill="black"/>
<path opacity="0.1" d="M552.108 386.096C552.108 386.096 685.816 397.488 736.412 386.836C736.412 386.836 739.112 388.45 723.003 381.939L552.108 386.096Z" fill="black"/>
<path opacity="0.05" d="M1059.78 375.354C1051.45 370.421 1038.25 360.184 1040.05 348.792C1040.94 343.083 1036.47 337.744 1030.32 333.261C1041.53 335.859 1051.79 340.603 1048.9 349.171C1043 366.669 1059.02 368.951 1059.02 368.951C1059.02 368.951 1059.35 371.296 1059.78 375.354Z" fill="black"/>
<path d="M387.752 454.761C387.832 451.748 387.752 448.619 387.503 445.741C387.503 445.191 387.403 444.659 387.343 444.136C389.222 445.417 390.342 446.391 390.342 446.391L388.692 368.067L379.593 327.038C379.593 297.941 362.225 289.743 362.225 289.743C362.225 289.743 353.126 286.009 350.646 280.796C348.166 275.583 326.188 264.561 326.178 264.561C326.004 262.662 325.937 260.757 325.978 258.852C325.978 258.356 325.978 257.842 326.028 257.327C331.538 254.032 335.535 249.045 337.276 243.292C339.018 237.54 338.385 231.412 335.497 226.048C336.717 226.048 337.707 225.588 338.167 223.956C339.627 218.788 338.217 211.004 334.897 206.873C334.187 206.009 333.387 205.209 332.507 204.483C331.477 203.551 330.392 202.669 329.258 201.84C326.418 199.712 323.258 197.475 319.738 197.655C317.742 197.891 315.823 198.506 314.109 199.459C305.316 203.632 296.547 207.841 287.801 212.086C284.572 213.665 281.242 215.324 278.982 218.156C276.722 220.988 275.812 224.614 275.182 228.177C274.653 230.591 274.528 233.062 274.812 235.51C275.077 237.737 276.207 239.807 278.002 241.354C278.364 241.749 278.777 242.103 279.232 242.409C281.012 243.582 283.302 243.871 285.161 244.818C286.567 248.5 288.922 251.829 292.031 254.531C292.031 254.991 291.961 255.433 291.921 255.938C291.811 257.228 291.641 258.644 291.421 260.078C291.421 260.078 285.311 259.934 276.212 271.118C267.113 282.302 247.265 283.799 247.265 283.799C247.265 283.799 239.825 280.814 231.556 314.384C223.287 347.954 220.807 370.304 224.937 374.056C226.69 375.421 228.667 376.534 230.796 377.357C237.806 380.548 245.349 382.681 253.124 383.67C253.223 383.939 253.391 384.183 253.614 384.383L254.204 390.886C254.704 404.613 255.284 432.149 252.204 438.255C248.065 446.463 253.034 451.685 253.034 451.685L254.034 451.622C254.219 451.906 254.426 452.177 254.654 452.434L258.654 452.19C258.364 467.523 257.584 488.791 255.524 493.463C252.214 500.922 255.524 541.951 255.524 541.951L249.735 615.801C249.735 615.801 246.565 654.35 249.535 658.814C247.915 666.833 245.005 682.111 245.605 685.917C246.435 691.14 265.453 698.599 265.453 698.599C265.453 698.599 287.781 703.108 298.53 701.584C304.15 700.799 306.38 697.372 306.4 694.369C313.689 695.424 323.178 696.434 329.128 695.604C339.877 694.116 338.227 682.923 332.437 683.672C326.648 684.42 320.028 673.922 315.109 668.699C312.609 666.066 310.529 661.358 309.109 657.326C310.155 657.184 311.115 656.722 311.829 656.018C314.309 652.284 318.449 617.975 318.449 617.975L329.198 558.303C329.198 558.303 334.987 529.206 339.947 522.496C343.696 517.427 348.386 479.6 350.456 461.381H350.636H350.696L350.916 460.741L354.025 451.685C355.685 454.328 359.865 455.636 364.734 456.195C364.215 458.107 363.785 459.667 363.535 460.56C362.295 465.07 380.373 472.493 384.733 468.768C386.563 467.207 387.512 461.552 387.732 455.365H387.882L387.752 454.761ZM279.102 658.183C278.822 659.635 278.542 661.15 278.262 662.693C277.632 660.889 277.132 659.265 276.792 658.066C277.612 658.093 278.382 658.129 279.102 658.183Z" fill="url(#paint2_linear)"/>
<path d="M306.83 642.634C306.83 642.634 310.019 655.567 314.829 660.591C319.638 665.615 325.978 675.671 331.547 674.959C337.117 674.246 338.717 685.015 328.358 686.449C317.999 687.883 296.5 683.572 296.5 683.572C296.5 683.572 278.182 676.357 277.392 671.36C276.602 666.363 282.172 640.469 282.172 640.469L306.83 642.634Z" fill="#53526B"/>
<path opacity="0.05" d="M306.83 642.634C306.83 642.634 310.019 655.567 314.829 660.591C319.638 665.615 325.978 675.671 331.547 674.959C337.117 674.246 338.717 685.015 328.358 686.449C317.999 687.883 296.5 683.572 296.5 683.572C296.5 683.572 278.182 676.357 277.392 671.36C276.602 666.363 282.172 640.469 282.172 640.469L306.83 642.634Z" fill="black"/>
<path d="M277.362 648.379C277.362 648.379 280.552 661.313 285.361 666.336C290.171 671.36 296.51 681.417 302.08 680.704C307.649 679.992 309.249 690.761 298.89 692.195C288.531 693.629 267.033 689.327 267.033 689.327C267.033 689.327 248.715 682.111 247.925 677.114C247.135 672.118 252.704 646.223 252.704 646.223L277.362 648.379Z" fill="#53526B"/>
<path d="M349.836 451.559C349.836 451.559 343.466 513.332 338.687 519.799C333.907 526.266 328.338 554.28 328.338 554.28L317.989 611.742C317.989 611.742 313.989 644.789 311.619 648.379C309.249 651.969 279.692 650.426 279.692 650.426L298.03 460.181L349.836 451.559Z" fill="#5F5D7E"/>
<path opacity="0.05" d="M349.836 451.559C349.836 451.559 343.466 513.332 338.687 519.799C333.907 526.266 328.338 554.28 328.338 554.28L317.989 611.742C317.989 611.742 313.989 644.789 311.619 648.379C309.249 651.969 279.692 650.426 279.692 650.426L298.03 460.181L349.836 451.559Z" fill="black"/>
<path d="M362.575 422.111L360.495 428.072L349.246 460.281L349.026 460.894H348.966C347.456 461.2 315.579 467.812 308.699 469.841C308.328 469.945 307.964 470.068 307.609 470.211C304.42 471.645 300.44 523.362 300.44 523.362C300.44 523.362 298.05 572.21 296.44 575.8C294.831 579.39 288.441 653.366 284.491 651.22C280.542 649.073 251.844 651.22 251.844 651.22C248.655 648.343 251.844 609.56 251.844 609.56L257.414 538.442C257.414 538.442 254.224 498.937 257.414 491.749C260.604 484.561 260.604 436.442 260.604 436.442L325.828 427.333L332.127 426.431L362.575 422.111Z" fill="#5F5D7E"/>
<path opacity="0.02" d="M360.495 428.072L349.246 460.281L348.976 460.912C347.466 461.219 315.589 467.83 308.709 469.859H308.019L325.828 427.333L326.338 426.106L332.127 426.44L360.495 428.072Z" fill="black"/>
<path opacity="0.1" d="M286.121 278.451C286.121 278.451 315.589 307.186 333.907 283.474L351.426 294.253L348.236 310.776L358.585 435.766C358.585 435.766 331.507 435.044 312.399 440.79C307.077 442.493 301.327 442.789 295.825 441.643C290.322 440.497 285.298 437.958 281.342 434.323L284.532 324.422L277.362 290.663L286.121 278.451Z" fill="black"/>
<path d="M286.121 276.295C286.121 276.295 315.589 305.031 333.907 281.319L351.426 292.097L348.236 308.62L358.595 433.646C358.595 433.646 331.517 432.925 312.409 438.67C307.087 440.373 301.337 440.669 295.835 439.523C290.332 438.378 285.308 435.838 281.352 432.203L284.542 322.303L277.372 288.543L286.121 276.295Z" fill="#53526B"/>
<path d="M344.936 404.261V408.78H346.546V405.768H352.396V408.78H354.005V404.27L344.936 404.261Z" fill="#E82127"/>
<path d="M346.376 402.8H352.555C352.96 402.713 353.331 402.527 353.627 402.263C353.923 401.999 354.134 401.667 354.235 401.303H344.706C344.809 401.667 345.02 401.998 345.316 402.262C345.612 402.526 345.982 402.712 346.386 402.8" fill="#E82127"/>
<path d="M340.077 408.78C340.427 408.657 340.738 408.459 340.984 408.203C341.23 407.947 341.402 407.64 341.486 407.31H334.277V401.303H332.657V408.78H340.067" fill="#E82127"/>
<path d="M320.658 402.773H326.368C326.774 402.681 327.149 402.498 327.456 402.241C327.764 401.984 327.995 401.661 328.128 401.303H319.028V405.686H326.448V407.238H320.628C320.184 407.344 319.77 407.534 319.413 407.795C319.057 408.056 318.765 408.383 318.559 408.753H328.028V404.243H320.618V402.764" fill="#E82127"/>
<path d="M306.57 402.791H312.749C313.154 402.704 313.524 402.518 313.821 402.254C314.117 401.99 314.327 401.658 314.429 401.294H304.9C305.002 401.658 305.213 401.989 305.509 402.253C305.805 402.517 306.175 402.703 306.58 402.791" fill="#E82127"/>
<path d="M306.57 405.741H312.749C313.154 405.654 313.526 405.469 313.822 405.205C314.118 404.94 314.328 404.608 314.429 404.243H304.9C305.002 404.607 305.213 404.939 305.509 405.202C305.805 405.466 306.175 405.652 306.58 405.741" fill="#E82127"/>
<path d="M306.57 408.78H312.749C313.154 408.693 313.524 408.507 313.821 408.243C314.117 407.979 314.327 407.647 314.429 407.283H304.9C305.002 407.647 305.213 407.978 305.509 408.242C305.805 408.506 306.175 408.692 306.58 408.78" fill="#E82127"/>
<path d="M290.501 401.312C290.606 401.672 290.817 402 291.111 402.262C291.404 402.523 291.77 402.709 292.171 402.8H294.771L294.901 402.845V408.762H296.52V402.845L296.67 402.8H299.27C299.669 402.707 300.034 402.52 300.327 402.259C300.62 401.997 300.832 401.671 300.94 401.312H290.501Z" fill="#E82127"/>
<path d="M322.368 386.52L330.477 345.365C338.207 345.365 340.647 346.132 341.007 349.252C341.007 349.252 346.196 347.512 348.806 343.967C342.347 341.352 335.407 339.838 328.338 339.503L322.338 346.078L316.339 339.503C309.269 339.838 302.329 341.352 295.87 343.967C298.48 347.512 303.67 349.252 303.67 349.252C304.02 346.132 306.46 345.365 314.139 345.356L322.318 386.52" fill="#E82127"/>
<path d="M322.368 337.6C331.775 337.494 341.101 339.182 349.736 342.551C350.372 341.584 350.918 340.57 351.366 339.521C332.768 332.725 311.968 332.725 293.371 339.521C293.849 340.563 294.403 341.575 295.031 342.551C303.665 339.182 312.991 337.494 322.398 337.6" fill="#E82127"/>
<path d="M347.446 424.979C347.446 424.979 347.446 443.658 352.226 451.559C357.005 459.46 384.873 455.167 384.873 455.167L379.303 428.587L347.446 424.979Z" fill="#D39999"/>
<path d="M381.843 468.082C377.643 471.69 360.235 464.474 361.435 460.181C362.275 457.142 365.214 446.264 366.884 440.095L368.044 435.757C368.044 435.757 378.243 432.88 381.843 435.757C383.153 436.803 384.073 440.925 384.503 445.904C385.243 454.553 384.513 465.8 381.843 468.082Z" fill="#FDC2CC"/>
<path d="M343.456 289.22L315.589 308.611C315.589 308.611 274.182 306.456 284.531 288.498C289.038 280.6 291.757 271.973 292.531 263.118C292.867 259.851 292.867 256.563 292.531 253.296C292.531 253.296 330.757 221.728 325.978 257.607C325.601 260.361 325.381 263.131 325.318 265.905C324.788 292.837 343.456 289.22 343.456 289.22Z" fill="#FDC2CC"/>
<path opacity="0.1" d="M325.938 257.616C325.561 260.37 325.341 263.14 325.278 265.914C320.988 268.477 315.954 269.838 310.809 269.828C303.68 269.828 298.43 263.569 293.691 259.411C294.221 253.449 292.501 253.305 292.501 253.305C292.501 253.305 330.717 221.692 325.938 257.616Z" fill="black"/>
<path d="M310.809 268.385C325.322 268.385 337.087 257.773 337.087 244.682C337.087 231.592 325.322 220.979 310.809 220.979C296.296 220.979 284.531 231.592 284.531 244.682C284.531 257.773 296.296 268.385 310.809 268.385Z" fill="#FDC2CC"/>
<path opacity="0.1" d="M292.101 267.312C292.101 267.312 287.721 267.673 278.962 278.442C270.203 289.211 251.034 290.654 251.034 290.654C251.034 290.654 243.865 287.777 235.906 320.102C227.946 352.427 225.557 373.974 229.536 377.564C233.516 381.154 249.445 386.187 257.404 386.187C257.404 386.187 259.794 431.437 255.814 439.338C251.834 447.239 256.614 452.271 256.614 452.271L291.611 450.116C291.611 450.116 303.56 436.469 305.95 412.767C308.339 389.064 316.299 321.536 312.319 313.635C308.339 305.734 290.821 285.621 291.611 283.465C292.401 281.31 292.101 267.312 292.101 267.312Z" fill="black"/>
<path d="M292.031 267.095C292.031 267.095 286.141 266.951 277.382 277.729C268.623 288.507 249.515 289.941 249.515 289.941C249.515 289.941 242.345 287.064 234.386 319.389C226.427 351.715 224.037 373.262 228.036 376.825C232.036 380.387 247.945 385.447 255.904 385.447C255.904 385.447 258.294 430.697 254.314 438.598C250.334 446.499 255.114 451.532 255.114 451.532L290.111 449.376C290.111 449.376 302.06 435.73 304.45 412.027C306.84 388.324 314.799 320.796 310.819 312.896C306.84 304.995 289.321 284.881 290.111 282.726C290.901 280.57 292.031 267.095 292.031 267.095Z" fill="#D39999"/>
<path d="M271.033 359.616C271.033 359.616 310.879 318.397 305.28 346.682C301.28 366.795 286.171 377.573 279.002 379.729C271.833 381.884 271.033 359.616 271.033 359.616Z" fill="#FDC2CC"/>
<path opacity="0.1" d="M384.503 445.904C380.693 443.279 373.504 439.193 366.884 440.095L368.044 435.757C368.044 435.757 378.243 432.88 381.843 435.757C383.163 436.803 384.073 440.925 384.503 445.904Z" fill="black"/>
<path opacity="0.1" d="M325.538 271.623C325.538 271.623 345.846 283.474 348.236 288.507C350.626 293.54 359.385 297.13 359.385 297.13C359.385 297.13 376.103 305.031 376.103 333.045L384.863 372.549L345.026 422.823C345.026 422.823 340.247 372.54 337.857 360.328C335.467 348.116 332.287 325.153 332.287 325.153C332.287 325.153 320.338 311.507 321.938 307.917C323.538 304.327 325.538 271.623 325.538 271.623Z" fill="black"/>
<path d="M325.468 271.407C325.468 271.407 346.646 282.04 349.026 287.064C351.406 292.088 360.185 295.651 360.185 295.651C360.185 295.651 376.903 303.551 376.903 331.566L385.663 371.07L387.252 446.49C387.252 446.49 372.914 434.278 362.565 440.023C352.216 445.768 345.846 421.344 345.846 421.344C345.846 421.344 341.067 371.061 338.677 358.849C336.287 346.637 333.107 323.674 333.107 323.674C333.107 323.674 321.158 310.081 322.758 306.474C324.358 302.866 325.468 271.407 325.468 271.407Z" fill="#D39999"/>
<path opacity="0.1" d="M333.877 215.856C332.529 214.309 330.97 212.921 329.238 211.726C326.498 209.669 323.468 207.523 320.068 207.703C318.145 207.934 316.298 208.53 314.649 209.453C306.183 213.475 297.74 217.54 289.321 221.647C286.211 223.162 283.002 224.768 280.832 227.491C278.662 230.215 277.782 233.715 277.172 237.142C276.662 239.464 276.54 241.841 276.812 244.195C277.06 246.503 278.302 248.631 280.272 250.121C282.542 251.609 285.651 251.618 287.551 253.566C288.651 254.694 289.131 256.272 289.911 257.643C290.691 259.014 292.041 260.349 293.581 260.105C295.121 259.862 296.05 258.392 296.27 256.903C296.368 255.395 296.271 253.882 295.981 252.394C295.681 249.688 296.06 246.82 297.8 244.809C299 243.438 300.72 242.608 301.88 241.201C304.66 237.81 303.39 232.181 306.44 228.998C307.325 228.165 308.44 227.56 309.669 227.243C310.899 226.926 312.2 226.909 313.439 227.194C315.909 227.663 318.169 228.871 320.438 229.9C323.505 231.295 326.717 232.413 330.028 233.237C332.807 233.922 336.027 235.564 336.977 232.227C338.427 227.329 337.027 219.834 333.877 215.856Z" fill="black"/>
<path d="M333.077 215.135C331.729 213.588 330.17 212.2 328.438 211.004C325.698 208.948 322.668 206.801 319.268 206.981C317.345 207.212 315.498 207.809 313.849 208.731C305.39 212.754 298.36 208.948 288.521 220.925C286.421 223.487 282.202 224.046 280.032 226.77C277.862 229.494 276.982 232.993 276.372 236.421C275.862 238.742 275.74 241.12 276.012 243.474C276.26 245.782 277.503 247.909 279.472 249.399C281.742 250.888 284.851 250.897 286.751 252.845C287.851 253.972 288.331 255.551 289.111 256.922C289.891 258.292 291.241 259.627 292.781 259.384C294.321 259.14 295.251 257.67 295.471 256.182C295.569 254.674 295.471 253.16 295.181 251.672C294.881 248.966 295.261 246.098 297 244.087C298.2 242.716 299.92 241.886 301.08 240.479C303.86 237.088 302.59 231.46 305.64 228.276C306.525 227.444 307.64 226.838 308.869 226.522C310.099 226.205 311.4 226.188 312.639 226.472C315.109 226.941 317.369 228.15 319.638 229.178C322.705 230.573 325.917 231.691 329.228 232.515C332.007 233.201 335.227 234.842 336.177 231.505C337.637 226.608 336.277 219.112 333.077 215.135Z" fill="#865A61"/>
<path d="M261.434 321.545C261.434 321.545 260.634 348.125 256.654 351.715C252.674 355.304 259.044 359.616 259.044 359.616L274.972 356.008C274.972 356.008 270.973 379.711 287.711 376.843C287.711 376.843 276.562 386.178 265.413 387.621C254.264 389.064 255.034 385.474 255.034 385.474L238.316 367.517L261.434 321.545Z" fill="#D39999"/>
<path opacity="0.1" d="M261.304 324.774C261.304 324.774 250.684 349.198 258.654 359.255L276.172 355.647C276.172 355.647 260.244 359.958 262.633 351.336C265.023 342.713 261.304 324.774 261.304 324.774Z" fill="black"/>
<path opacity="0.1" d="M255.464 385.113C255.464 385.113 278.562 386.547 284.931 382.236C276.549 388.028 266.644 391.757 256.184 393.059L255.464 385.113Z" fill="black"/>
<path opacity="0.1" d="M355.025 339.142C355.025 339.142 366.974 372.189 366.174 377.212C365.374 382.236 363.785 437.552 363.785 437.552L361.395 436.83L362.195 376.491L355.025 339.142Z" fill="black"/>
<path d="M858.101 432.591C858.101 432.591 875.6 463.573 861.341 480.52C847.082 497.467 862.641 543.655 862.641 543.655" stroke="#2F80ED" stroke-miterlimit="10"/>
<path d="M863.281 422.949C863.281 428.92 858.421 433.773 858.421 433.773C858.421 433.773 853.562 428.929 853.562 422.949C853.562 416.97 858.421 412.126 858.421 412.126C858.421 412.126 863.281 416.979 863.281 422.949Z" fill="#2F80ED"/>
<path d="M867.17 432.591C867.17 432.591 849.672 463.573 863.931 480.52C878.189 497.467 862.631 543.655 862.631 543.655" stroke="#2F80ED" stroke-miterlimit="10"/>
<path d="M861.981 422.949C861.981 428.92 866.84 433.773 866.84 433.773C866.84 433.773 871.7 428.929 871.7 422.949C871.7 416.97 866.84 412.126 866.84 412.126C866.84 412.126 861.981 416.979 861.981 422.949Z" fill="#2F80ED"/>
<path opacity="0.1" d="M861.981 422.949C861.981 428.92 866.84 433.773 866.84 433.773C866.84 433.773 871.7 428.929 871.7 422.949C871.7 416.97 866.84 412.126 866.84 412.126C866.84 412.126 861.981 416.979 861.981 422.949Z" fill="black"/>
<path d="M874.3 432.591C874.3 432.591 891.798 463.573 877.539 480.52C863.281 497.467 878.839 543.655 878.839 543.655" stroke="#2F80ED" stroke-miterlimit="10"/>
<path d="M879.479 422.949C879.479 428.92 874.62 433.773 874.62 433.773C874.62 433.773 869.76 428.929 869.76 422.949C869.76 416.97 874.62 412.126 874.62 412.126C874.62 412.126 879.479 416.979 879.479 422.949Z" fill="#2F80ED"/>
<path d="M876.76 447.771C872.17 452.073 864.94 452.524 864.94 452.524C864.94 452.524 865.16 445.994 869.75 441.701C874.34 437.407 881.569 436.947 881.569 436.947C881.569 436.947 881.349 443.468 876.76 447.771Z" fill="#2F80ED"/>
<path d="M877.209 469.147C872.62 473.449 865.39 473.9 865.39 473.9C865.39 473.9 865.61 467.37 870.2 463.077C874.79 458.783 881.979 458.314 881.979 458.314C881.979 458.314 881.799 464.835 877.209 469.147Z" fill="#2F80ED"/>
<path d="M852.322 480.899C856.661 485.408 856.511 491.938 856.511 491.938C856.511 491.938 849.322 491.154 844.982 486.644C840.643 482.134 840.793 475.604 840.793 475.604C840.793 475.604 847.982 476.389 852.322 480.899Z" fill="#2F80ED"/>
<path d="M856.351 435.324C861.871 438.625 863.661 444.957 863.661 444.957C863.661 444.957 856.491 445.931 850.982 442.666C845.472 439.401 843.672 433.033 843.672 433.033C843.672 433.033 850.832 432.023 856.351 435.324Z" fill="#2F80ED"/>
<path opacity="0.1" d="M856.351 435.324C861.871 438.625 863.661 444.957 863.661 444.957C863.661 444.957 856.491 445.931 850.982 442.666C845.472 439.401 843.672 433.033 843.672 433.033C843.672 433.033 850.832 432.023 856.351 435.324Z" fill="black"/>
<path d="M883.369 432.591C883.369 432.591 865.871 463.573 880.129 480.52C894.388 497.467 878.829 543.655 878.829 543.655" stroke="#2F80ED" stroke-miterlimit="10"/>
<path d="M878.189 422.949C878.189 428.92 883.049 433.773 883.049 433.773C883.049 433.773 887.908 428.929 887.908 422.949C887.908 416.97 883.049 412.126 883.049 412.126C883.049 412.126 878.189 416.979 878.189 422.949Z" fill="#2F80ED"/>
<path opacity="0.1" d="M878.189 422.949C878.189 428.92 883.049 433.773 883.049 433.773C883.049 433.773 887.908 428.929 887.908 422.949C887.908 416.97 883.049 412.126 883.049 412.126C883.049 412.126 878.189 416.979 878.189 422.949Z" fill="black"/>
<path d="M879.589 448.231C874.94 452.488 874.59 459.054 874.59 459.054C874.59 459.054 881.819 458.684 886.469 454.427C891.118 450.17 891.468 443.604 891.468 443.604C891.468 443.604 884.229 443.974 879.589 448.231Z" fill="#2F80ED"/>
<path opacity="0.1" d="M879.589 448.231C874.94 452.488 874.59 459.054 874.59 459.054C874.59 459.054 881.819 458.684 886.469 454.427C891.118 450.17 891.468 443.604 891.468 443.604C891.468 443.604 884.229 443.974 879.589 448.231Z" fill="black"/>
<path d="M888.698 477.841C884.049 482.098 883.699 488.664 883.699 488.664C883.699 488.664 890.928 488.295 895.578 484.037C900.227 479.78 900.577 473.214 900.577 473.214C900.577 473.214 893.348 473.566 888.698 477.841Z" fill="#2F80ED"/>
<path d="M875.29 471.32C875.29 471.32 885.819 456.348 900.607 455.987" stroke="#2F80ED" stroke-miterlimit="10"/>
<path d="M867.09 462.274C867.09 462.274 856.561 447.302 841.773 446.941" stroke="#2F80ED" stroke-miterlimit="10"/>
<path d="M865.72 483.65C865.72 483.65 876.249 468.678 891.038 468.317" stroke="#2F80ED" stroke-miterlimit="10"/>
<path d="M900.117 458.368C901.625 458.368 902.847 457.266 902.847 455.906C902.847 454.546 901.625 453.444 900.117 453.444C898.61 453.444 897.388 454.546 897.388 455.906C897.388 457.266 898.61 458.368 900.117 458.368Z" fill="#2F80ED"/>
<path d="M842.023 449.53C843.53 449.53 844.752 448.427 844.752 447.067C844.752 445.707 843.53 444.605 842.023 444.605C840.515 444.605 839.293 445.707 839.293 447.067C839.293 448.427 840.515 449.53 842.023 449.53Z" fill="#2F80ED"/>
<path d="M873.47 488.583C873.47 488.583 862.941 473.611 848.152 473.25" stroke="#2F80ED" stroke-miterlimit="10"/>
<path d="M848.402 475.839C849.91 475.839 851.132 474.737 851.132 473.377C851.132 472.017 849.91 470.914 848.402 470.914C846.894 470.914 845.672 472.017 845.672 473.377C845.672 474.737 846.894 475.839 848.402 475.839Z" fill="#2F80ED"/>
<path d="M891.238 470.905C892.746 470.905 893.968 469.803 893.968 468.443C893.968 467.083 892.746 465.981 891.238 465.981C889.731 465.981 888.508 467.083 888.508 468.443C888.508 469.803 889.731 470.905 891.238 470.905Z" fill="#2F80ED"/>
<path d="M931.685 525.644C931.685 525.644 906.307 521.062 899.537 514.956C892.768 508.85 862.311 498.198 858.931 505.801C855.551 513.404 813.245 539.407 841.982 543.98C870.72 548.553 909.667 550.086 918.126 547.029C926.585 543.971 931.685 525.644 931.685 525.644Z" fill="#A8A8A8"/>
<path opacity="0.2" d="M841.983 541.148C870.75 545.73 909.667 547.254 918.126 544.196C924.565 541.869 929.045 530.667 930.815 525.508L931.665 525.671C931.665 525.671 926.585 543.989 918.126 547.037C909.667 550.086 870.75 548.562 841.983 543.989C833.683 542.663 831.303 539.561 832.203 535.637C832.933 538.19 835.823 540.165 841.983 541.148Z" fill="black"/>
<path d="M187.31 602.001C187.31 602.001 195.689 611.923 183.44 626.805C171.191 641.686 161.092 654.323 165.182 663.64C165.182 663.64 183.66 635.923 198.699 635.535C213.738 635.147 203.849 618.669 187.31 602.001Z" fill="#2F80ED"/>
<path d="M202.889 614.592C202.889 618.074 202.459 620.906 201.889 620.906C201.319 620.906 200.889 618.083 200.889 614.592C200.889 611.102 201.429 612.788 201.959 612.788C202.489 612.788 202.889 611.12 202.889 614.592Z" fill="#FFD037"/>
<path d="M208.228 618.75C204.839 620.419 201.889 621.456 201.639 620.996C201.389 620.536 203.919 618.877 207.308 617.217C210.698 615.557 209.358 616.766 209.618 617.217C209.878 617.668 211.618 617.082 208.228 618.75Z" fill="#FFD037"/>
<path d="M143.044 602.001C143.044 602.001 134.665 611.923 146.914 626.805C159.162 641.686 169.262 654.323 165.172 663.63C165.172 663.63 146.694 635.914 131.655 635.526C116.616 635.138 126.505 618.669 143.044 602.001Z" fill="#2F80ED"/>
<path opacity="0.1" d="M143.044 602.001C142.314 602.957 141.738 604.002 141.334 605.104C126.655 620.653 118.846 635.165 132.945 635.535C146.084 635.878 161.842 657.064 165.622 662.422C165.497 662.835 165.347 663.242 165.172 663.64C165.172 663.64 146.694 635.923 131.655 635.535C116.616 635.147 126.505 618.669 143.044 602.001Z" fill="black"/>
<path d="M127.465 614.592C127.465 618.074 127.895 620.906 128.465 620.906C129.035 620.906 129.465 618.083 129.465 614.592C129.465 611.102 128.925 612.788 128.395 612.788C127.865 612.788 127.465 611.12 127.465 614.592Z" fill="#FFD037"/>
<path d="M122.126 618.75C125.516 620.419 128.465 621.456 128.715 620.996C128.965 620.536 126.435 618.877 123.046 617.217C119.656 615.557 120.996 616.766 120.736 617.217C120.476 617.668 118.736 617.082 122.126 618.75Z" fill="#FFD037"/>
<path d="M130.135 662.332C130.135 662.332 153.563 661.682 160.622 657.146C167.682 652.609 196.619 647.224 198.409 654.44C200.199 661.655 233.616 690.616 207.168 690.806C180.721 690.995 145.714 687.09 138.664 683.221C131.615 679.351 130.135 662.332 130.135 662.332Z" fill="#A8A8A8"/>
<path opacity="0.2" d="M207.648 688.307C181.201 688.497 146.194 684.591 139.144 680.722C133.775 677.773 131.635 667.193 130.925 662.314H130.145C130.145 662.314 131.625 679.36 138.674 683.229C145.724 687.099 180.731 691.013 207.178 690.815C214.818 690.761 217.447 688.307 217.307 684.682C216.237 686.9 213.328 688.262 207.648 688.307Z" fill="black"/>
</g>
<defs>
<linearGradient id="paint0_linear" x1="580.646" y1="596.409" x2="580.646" y2="276.602" gradientUnits="userSpaceOnUse">
<stop stop-color="#808080" stop-opacity="0.25"/>
<stop offset="0.54" stop-color="#808080" stop-opacity="0.12"/>
<stop offset="1" stop-color="#808080" stop-opacity="0.1"/>
</linearGradient>
<linearGradient id="paint1_linear" x1="69122.9" y1="157399" x2="84124.3" y2="95633.1" gradientUnits="userSpaceOnUse">
<stop stop-color="#808080" stop-opacity="0.25"/>
<stop offset="0.54" stop-color="#808080" stop-opacity="0.12"/>
<stop offset="1" stop-color="#808080" stop-opacity="0.1"/>
</linearGradient>
<linearGradient id="paint2_linear" x1="53889" y1="391165" x2="53889" y2="109283" gradientUnits="userSpaceOnUse">
<stop stop-color="#808080" stop-opacity="0.25"/>
<stop offset="0.54" stop-color="#808080" stop-opacity="0.12"/>
<stop offset="1" stop-color="#808080" stop-opacity="0.1"/>
</linearGradient>
<clipPath id="clip0">
<rect width="1024" height="708" fill="white" transform="translate(74 58)"/>
</clipPath>
</defs>
</svg>
