<svg width="1104" height="835" viewBox="0 0 1104 835" fill="none" xmlns="http://www.w3.org/2000/svg">
<g clip-path="url(#clip0)">
<path opacity="0.1" d="M51.17 330.86C68 377.07 103.62 417.07 159.92 436.46C276.92 476.73 540.78 455.96 737.7 432.12C839.57 419.79 929.09 385.77 994.13 337.86L51.17 330.86Z" fill="#2F80ED"/>
<path opacity="0.1" d="M1083.85 113.16H975.85C970.72 113.16 966.51 110.46 966.51 107.16C966.51 103.86 970.72 101.16 975.85 101.16H994.53C989.39 101.16 985.19 98.46 985.19 95.16C985.19 91.86 989.39 89.16 994.53 89.16H981.19C976.05 89.16 971.85 86.46 971.85 83.16C971.85 79.86 976.05 77.16 981.19 77.16H1037.57C1025.06 73.41 1010.47 70.75 993.57 69.36C839.77 56.64 784.86 65.07 765.49 73.68C740.36 84.8534 713.755 92.3568 686.49 95.96C591.57 108.54 414.14 123.69 253.32 91.07C173.39 74.88 113.98 102.24 78.37 147.97H1102.62C1101.28 134.67 1097.28 122.4 1089.93 111.66C1088.06 112.662 1085.97 113.177 1083.85 113.16V113.16Z" fill="#2F80ED"/>
<path opacity="0.1" d="M42 234.32C37.8508 261.22 39.277 288.685 46.19 315.01L994.86 337.32C1021.12 317.88 1043.37 296.16 1060.77 272.69L42 234.32ZM417.21 291.88H398.57C403.7 291.88 407.9 294.59 407.9 297.88C407.9 301.17 403.7 303.88 398.57 303.88H290.57C285.43 303.88 281.23 301.18 281.23 297.88C281.23 294.58 285.43 291.88 290.57 291.88H309.24C304.11 291.88 299.9 289.18 299.9 285.88C299.9 282.58 304.11 279.88 309.24 279.88H295.82C290.69 279.88 286.48 277.17 286.48 273.88C286.48 270.59 290.69 267.88 295.82 267.88H403.87C409.01 267.88 413.21 270.58 413.21 273.88C413.21 277.18 409.01 279.88 403.87 279.88H417.21C422.35 279.88 426.55 282.58 426.55 285.88C426.55 289.18 422.35 291.88 417.21 291.88Z" fill="#2F80ED"/>
<path opacity="0.1" d="M1102.66 148.42L66.94 164.62C54.3081 185.729 45.8862 209.087 42.14 233.4H1084.51C1091.18 219.412 1096.21 204.701 1099.51 189.56C1102.66 175.22 1103.9 161.34 1102.66 148.42ZM252.43 201.5H233.75C238.89 201.5 243.09 204.21 243.09 207.5C243.09 210.79 238.89 213.5 233.75 213.5H125.75C120.61 213.5 116.41 210.8 116.41 207.5C116.41 204.2 120.61 201.5 125.75 201.5H144.43C139.29 201.5 135.09 198.8 135.09 195.5C135.09 192.2 139.29 189.5 144.43 189.5H131.04C125.9 189.5 121.7 186.79 121.7 183.5C121.7 180.21 125.9 177.5 131.04 177.5H239.04C244.17 177.5 248.37 180.2 248.37 183.5C248.37 186.8 244.17 189.5 239.04 189.5H252.38C257.51 189.5 261.71 192.2 261.71 195.5C261.71 198.8 257.57 201.5 252.43 201.5Z" fill="#2F80ED"/>
<path d="M586.3 263.67H580.73V570.72H586.3V263.67Z" fill="#535F89"/>
<path d="M591.57 628.15C589.02 630.131 585.884 631.206 582.655 631.206C579.426 631.206 576.29 630.131 573.74 628.15C571.25 611.72 577.57 579.43 579.06 572.15L579.37 570.69H586.57C587.049 571.166 587.427 571.734 587.68 572.36C592.57 582.89 591.57 628.15 591.57 628.15Z" fill="#535F89"/>
<path opacity="0.1" d="M585.06 564.07V570.7H582.06V564.07C582.542 563.989 583.031 563.949 583.52 563.95C584.036 563.95 584.551 563.99 585.06 564.07V564.07Z" fill="black"/>
<path opacity="0.1" d="M587.63 572.39C586.363 573.066 584.946 573.41 583.51 573.39C581.951 573.429 580.413 573.019 579.08 572.21L579.39 570.75H586.57C587.028 571.222 587.388 571.779 587.63 572.39V572.39Z" fill="black"/>
<path d="M583.51 572.23C586.829 572.23 589.52 570.632 589.52 568.66C589.52 566.688 586.829 565.09 583.51 565.09C580.191 565.09 577.5 566.688 577.5 568.66C577.5 570.632 580.191 572.23 583.51 572.23Z" fill="#DCE2ED"/>
<path d="M557.1 214.21L578.26 204.08L609.46 211.54L585.25 193.24L557.1 214.21Z" fill="#2F80ED"/>
<path d="M563.29 217.45L557.1 214.21L578.26 204.08L609.46 211.54L603.97 214.21L578.26 208.44L563.29 217.45Z" fill="#2F80ED"/>
<path opacity="0.1" d="M563.29 217.45L557.1 214.21L578.26 204.08L609.46 211.54L603.97 214.21L578.26 208.44L563.29 217.45Z" fill="black"/>
<path opacity="0.2" d="M562.45 215.06L579.48 262.78H587.92L603.69 212.1L578.26 206.19L562.45 215.06Z" fill="#2F80ED"/>
<path d="M592.1 249.35L588.74 260.17L587.92 262.78H579.48L578.85 261.01L574.87 249.86L581.26 246.02L592.1 249.35Z" fill="#2F80ED"/>
<path opacity="0.2" d="M578.26 208.44L582.29 262.78H579.48L563.29 217.45L578.26 208.44Z" fill="#2F80ED"/>
<path opacity="0.1" d="M585.25 193.24L578.26 204.08L557.1 214.21L585.25 193.24Z" fill="black"/>
<path opacity="0.1" d="M588.74 260.17L587.93 262.78H579.48L578.85 261.01C579.562 260.314 580.412 259.776 581.346 259.431C582.28 259.086 583.277 258.943 584.27 259.01C585.841 258.955 587.394 259.358 588.74 260.17V260.17Z" fill="black"/>
<path opacity="0.1" d="M585.06 263.67V268.32C584.8 268.32 584.54 268.32 584.27 268.32C583.522 268.323 582.777 268.236 582.05 268.06V263.67H585.06Z" fill="black"/>
<path d="M584.26 267.24C587.579 267.24 590.27 265.642 590.27 263.67C590.27 261.698 587.579 260.1 584.26 260.1C580.941 260.1 578.25 261.698 578.25 263.67C578.25 265.642 580.941 267.24 584.26 267.24Z" fill="#DCE2ED"/>
<path d="M802.76 413.01H799.08V616.01H802.76V413.01Z" fill="#535F89"/>
<path d="M806.26 653.98C804.576 655.289 802.503 655.999 800.37 655.999C798.237 655.999 796.164 655.289 794.48 653.98C792.83 643.12 797.01 621.76 797.99 616.98C798.12 616.35 798.2 615.98 798.2 615.98H802.91C803.228 616.294 803.479 616.668 803.65 617.08C806.91 624.07 806.26 653.98 806.26 653.98Z" fill="#535F89"/>
<path opacity="0.1" d="M801.94 611.62V616.01H799.94V611.62C800.27 611.56 800.605 611.533 800.94 611.54C801.275 611.542 801.609 611.568 801.94 611.62V611.62Z" fill="black"/>
<path opacity="0.1" d="M803.65 617.07C802.807 617.507 801.869 617.727 800.92 617.71C799.89 617.733 798.875 617.466 797.99 616.94C798.12 616.31 798.2 615.94 798.2 615.94H802.91C803.231 616.262 803.483 616.647 803.65 617.07V617.07Z" fill="black"/>
<path d="M800.92 617.01C803.113 617.01 804.89 615.953 804.89 614.65C804.89 613.347 803.113 612.29 800.92 612.29C798.727 612.29 796.95 613.347 796.95 614.65C796.95 615.953 798.727 617.01 800.92 617.01Z" fill="#DCE2ED"/>
<path d="M783.46 380.31L797.45 373.61L818.08 378.55L802.07 366.45L783.46 380.31Z" fill="#2F80ED"/>
<path d="M787.55 382.45L783.46 380.31L797.45 373.61L818.08 378.55L814.45 380.31L797.45 376.5L787.55 382.45Z" fill="#2F80ED"/>
<path opacity="0.1" d="M787.55 382.45L783.46 380.31L797.45 373.61L818.08 378.55L814.45 380.31L797.45 376.5L787.55 382.45Z" fill="black"/>
<path opacity="0.2" d="M786.99 380.87L798.25 412.42H803.84L814.26 378.92L797.45 375.01L786.99 380.87Z" fill="#2F80ED"/>
<path d="M806.6 403.54L804.38 410.7L803.84 412.43H798.25L797.84 411.26L795.21 403.89L799.43 401.35L806.6 403.54Z" fill="#2F80ED"/>
<path opacity="0.2" d="M797.45 376.5L800.12 412.42H798.25L787.55 382.45L797.45 376.5Z" fill="#2F80ED"/>
<path opacity="0.1" d="M802.07 366.45L797.45 373.61L783.46 380.31L802.07 366.45Z" fill="black"/>
<path opacity="0.1" d="M804.38 410.7L803.84 412.42H798.26L797.84 411.25C798.309 410.787 798.87 410.429 799.487 410.198C800.104 409.967 800.763 409.869 801.42 409.91C802.462 409.88 803.491 410.154 804.38 410.7V410.7Z" fill="black"/>
<path opacity="0.1" d="M801.94 413.01V416.07H801.42C800.928 416.072 800.438 416.015 799.96 415.9V412.97L801.94 413.01Z" fill="black"/>
<path d="M801.42 415.37C803.613 415.37 805.39 414.313 805.39 413.01C805.39 411.707 803.613 410.65 801.42 410.65C799.227 410.65 797.45 411.707 797.45 413.01C797.45 414.313 799.227 415.37 801.42 415.37Z" fill="#DCE2ED"/>
<path opacity="0.1" d="M445 834.15C690.767 834.15 890 814.451 890 790.15C890 765.849 690.767 746.15 445 746.15C199.233 746.15 0 765.849 0 790.15C0 814.451 199.233 834.15 445 834.15Z" fill="#2F80ED"/>
<path d="M446.84 687.76C446.84 687.76 357.64 684.01 348.25 509.36C338.86 334.71 431.82 305.13 431.82 305.13C431.82 305.13 461.27 288.68 474.33 288C487.39 287.32 531.04 291.43 531.04 291.43L482.92 282.15C482.92 282.15 550.63 256.38 570.92 254.32L497.72 269.78C497.72 269.78 496.72 229.23 514.22 215.83C514.22 215.83 499.22 214.71 491.31 243.92C489.058 252.348 484.862 260.131 479.058 266.643C473.254 273.156 466.004 278.217 457.89 281.42C430.74 292.01 393.2 308.73 384.65 323.05C384.65 323.05 368.84 339.55 371.25 296.59C373.66 253.63 384.99 216.85 389.12 215.82C389.12 215.82 421.42 181.46 466.79 179.4C466.79 179.4 440.33 168.74 395.65 202.08C395.65 202.08 391.87 185.24 408.71 165.3C425.55 145.36 451.71 103.44 480.19 98.98C480.19 98.98 440.33 96.57 408.71 148.12C408.71 148.12 397.02 155.68 395.99 136.44C394.96 117.2 388.09 93.13 388.09 93.13C388.09 93.13 378.46 137.47 398.74 157.4C398.74 157.4 359.9 207.92 361.62 264.63C361.62 264.63 349.62 290.4 345.13 260.16C345.13 260.16 342.54 218.51 337.37 183.16C335.279 168.921 336.149 154.404 339.924 140.517C343.699 126.63 350.298 113.671 359.31 102.45C367.9 91.76 373.88 81.38 370.56 75.93L325.56 129.54C325.56 129.54 287.71 41.93 260.22 23.07C232.73 4.21 229.29 0.0699997 229.29 0.0699997L273.62 51.96L217.95 32.3L273.62 58.07C273.62 58.07 299.4 79.07 314.18 136.43C328.96 193.79 330.33 229.56 330.33 229.56C330.33 229.56 250.94 166.67 235.82 168.73L287.19 207.59C301.164 218.155 312.707 231.598 321.038 247.009C329.37 262.421 334.294 279.441 335.48 296.92V296.92C335.48 296.92 236.16 271.49 212.1 266.68L166.74 220.28L201.11 264.28L130.31 263.28L89.76 234.41C89.76 234.41 121.76 261.22 118.62 262.94C115.48 264.66 68.79 266.72 68.79 266.72C68.79 266.72 187.7 266.03 200.79 274.62C213.88 283.21 243.06 286.31 243.06 286.31L158.86 299.02L259.22 291.81C259.22 291.81 335.17 305.55 339.29 329.27C339.29 329.27 323.82 369.63 313.52 385.63C304.96 398.93 287.74 441.99 284.31 479.8C280.88 517.61 276.06 575.68 289.12 611.08C302.18 646.48 306.99 666.76 300.46 677.41C293.93 688.06 287.74 701.81 309.05 704.56C330.36 707.31 423.84 703.19 423.84 703.19C423.84 703.19 452.35 708.79 446.84 687.76Z" fill="#DEA3A2"/>
<path opacity="0.1" d="M396.88 669.01C387.53 664.243 376.806 662.902 366.57 665.22C349.07 669.01 322.26 667 319.82 666.58" fill="black"/>
<path opacity="0.1" d="M340.89 463.21C340.89 463.21 336.63 530.39 344.2 543.64L340.89 463.21Z" fill="black"/>
<path opacity="0.1" d="M325.17 543.64C325.17 543.64 330.63 606.56 334.41 618.86C338.19 631.16 325.17 543.64 325.17 543.64Z" fill="black"/>
<path opacity="0.1" d="M319.85 388.93C315.98 390.35 299.42 423.93 302.74 433.88C306.06 443.83 319.85 388.93 319.85 388.93Z" fill="black"/>
<path opacity="0.1" d="M361.83 354.07C360.04 354.88 352.33 374.23 353.83 379.95C355.33 385.67 361.83 354.07 361.83 354.07Z" fill="black"/>
<path opacity="0.1" d="M290.13 466.88C292.05 486.39 293.13 499.16 291.87 514.78C290.842 526.911 291.016 539.114 292.39 551.21" fill="black"/>
<path opacity="0.1" d="M497.47 239.73C495.14 242.39 494.36 246.08 494.25 249.62C494.14 253.16 494.59 256.7 494.36 260.23C494.11 263.94 492.36 268.3 488.66 268.79" fill="black"/>
<path opacity="0.1" d="M434.01 123.42C429.303 128.089 425.131 133.268 421.57 138.86C420.534 140.622 419.353 142.294 418.04 143.86C416.04 146.04 413.5 147.59 411.22 149.45C405.864 153.801 402.052 159.762 400.35 166.45" fill="black"/>
<path opacity="0.1" d="M254.35 23C255.481 25.1984 256.972 27.1925 258.76 28.9C260.32 30.38 262.1 31.64 263.51 33.26C264.625 34.6729 265.628 36.1708 266.51 37.74C270.13 43.53 274.68 48.68 279.22 53.74" fill="black"/>
<path opacity="0.1" d="M337.57 122.42C334.57 124.27 333.84 128.23 333.9 131.72C333.96 135.21 334.56 138.85 333.27 142.09C332.68 143.57 331.72 144.87 331.1 146.33C330.04 148.85 330.04 151.67 330.1 154.41C330.15 157.57 330.25 160.74 330.39 163.9C330.55 167.7 330.91 171.84 333.5 174.63" fill="black"/>
<path opacity="0.1" d="M335.1 310.75C333.146 309.145 331.066 307.7 328.88 306.43C326.887 305.209 324.737 304.263 322.49 303.62C319.06 302.71 315.49 302.85 311.93 302.48C308.37 302.11 304.71 301.13 302.31 298.48" fill="black"/>
<path opacity="0.1" d="M195.36 267.33C199.54 267.45 203.88 267.6 207.6 269.51C209.5 270.51 211.15 271.89 213.01 272.93C215.425 274.268 218.139 274.973 220.9 274.98" fill="black"/>
<path opacity="0.1" d="M253.34 284.59C252.44 283.89 251.08 284.43 250.34 285.29C249.6 286.15 249.19 287.29 248.42 288.09C246.89 289.74 244.42 289.93 242.15 290.01" fill="black"/>
<path opacity="0.1" d="M277.25 195.76L281.25 197.87C285.432 199.877 289.408 202.288 293.12 205.07" fill="black"/>
<path opacity="0.1" d="M323.17 235.07C325.81 234.44 328.09 237.26 328.56 239.93C329.03 242.6 328.48 245.42 329.23 248.03C330.07 250.298 331.441 252.332 333.23 253.96" fill="black"/>
<path opacity="0.1" d="M367.87 239.96C370.28 247.14 365.18 254.96 366.67 262.39C367.12 264.65 368.17 266.75 368.67 269C370.06 274.9 367.67 281.18 363.81 285.87" fill="black"/>
<path d="M224.19 181.71H217.24V564.99H224.19V181.71Z" fill="#535F89"/>
<path d="M230.79 636.68C227.609 639.154 223.695 640.497 219.665 640.497C215.635 640.497 211.721 639.154 208.54 636.68C205.44 616.17 213.32 575.86 215.18 566.82L215.57 564.99H224.47C225.062 565.588 225.534 566.294 225.86 567.07C232.02 580.19 230.79 636.68 230.79 636.68Z" fill="#535F89"/>
<path opacity="0.1" d="M222.64 556.71V564.99H218.89V556.7C219.495 556.602 220.107 556.555 220.72 556.56C221.363 556.558 222.005 556.609 222.64 556.71V556.71Z" fill="black"/>
<path opacity="0.1" d="M225.86 567.07C224.276 567.899 222.508 568.315 220.72 568.28C218.772 568.329 216.851 567.823 215.18 566.82L215.57 564.99H224.47C225.062 565.588 225.534 566.294 225.86 567.07Z" fill="black"/>
<path d="M220.72 566.87C224.862 566.87 228.22 564.878 228.22 562.42C228.22 559.962 224.862 557.97 220.72 557.97C216.578 557.97 213.22 559.962 213.22 562.42C213.22 564.878 216.578 566.87 220.72 566.87Z" fill="#DCE2ED"/>
<path d="M187.74 119.97L214.16 107.32L253.11 116.63L222.88 93.79L187.74 119.97Z" fill="#2F80ED"/>
<path d="M195.47 124.01L187.74 119.97L214.16 107.32L253.11 116.63L246.25 119.97L214.16 112.77L195.47 124.01Z" fill="#2F80ED"/>
<path opacity="0.1" d="M195.47 124.01L187.74 119.97L214.16 107.32L253.11 116.63L246.25 119.97L214.16 112.77L195.47 124.01Z" fill="black"/>
<path opacity="0.2" d="M194.42 121.03L215.68 180.59H226.22L245.9 117.34L214.16 109.96L194.42 121.03Z" fill="#2F80ED"/>
<path d="M231.44 163.83L227.23 177.34L226.22 180.6H215.68L214.89 178.39L209.93 164.48L217.9 159.68L231.44 163.83Z" fill="#2F80ED"/>
<path opacity="0.2" d="M214.16 112.77L219.19 180.59H215.68L195.47 124.01L214.16 112.77Z" fill="#2F80ED"/>
<path opacity="0.1" d="M222.88 93.79L214.16 107.32L187.74 119.97L222.88 93.79Z" fill="black"/>
<path opacity="0.1" d="M227.24 177.34L226.24 180.6H215.68L214.9 178.39C216.09 176.89 218.66 175.85 221.66 175.85C223.625 175.798 225.563 176.316 227.24 177.34V177.34Z" fill="black"/>
<path opacity="0.1" d="M222.64 181.71V187.51C222.32 187.51 221.99 187.56 221.64 187.56C220.707 187.562 219.777 187.451 218.87 187.23V181.71H222.64Z" fill="black"/>
<path d="M221.65 186.16C225.792 186.16 229.15 184.168 229.15 181.71C229.15 179.252 225.792 177.26 221.65 177.26C217.508 177.26 214.15 179.252 214.15 181.71C214.15 184.168 217.508 186.16 221.65 186.16Z" fill="#DCE2ED"/>
<path opacity="0.1" d="M914.02 690.56C923.309 690.56 930.84 689.288 930.84 687.72C930.84 686.151 923.309 684.88 914.02 684.88C904.731 684.88 897.2 686.151 897.2 687.72C897.2 689.288 904.731 690.56 914.02 690.56Z" fill="#2F80ED"/>
<path d="M902.73 674.51C902.73 674.51 912.32 674.21 915.21 672.15C918.1 670.09 929.97 667.64 930.68 670.94C931.39 674.24 945.1 687.36 934.27 687.45C923.44 687.54 909.1 685.76 906.22 684C903.34 682.24 902.73 674.51 902.73 674.51Z" fill="#A8A8A8"/>
<path opacity="0.2" d="M934.46 686.3C923.63 686.39 909.3 684.61 906.46 682.85C904.27 681.51 903.39 676.71 903.1 674.5H902.78C902.78 674.5 903.38 682.23 906.27 683.99C909.16 685.75 923.49 687.52 934.32 687.44C937.45 687.44 938.52 686.3 938.47 684.65C937.98 685.66 936.79 686.28 934.46 686.3Z" fill="black"/>
<path opacity="0.1" d="M1011.56 656.79C1018.71 656.79 1024.5 655.809 1024.5 654.6C1024.5 653.39 1018.71 652.41 1011.56 652.41C1004.41 652.41 998.62 653.39 998.62 654.6C998.62 655.809 1004.41 656.79 1011.56 656.79Z" fill="#2F80ED"/>
<path d="M1002.87 644.43C1002.87 644.43 1010.25 644.2 1012.48 642.62C1014.71 641.04 1023.83 639.14 1024.38 641.68C1024.93 644.22 1035.48 654.32 1027.14 654.38C1018.8 654.44 1007.78 653.09 1005.56 651.73C1003.34 650.37 1002.87 644.43 1002.87 644.43Z" fill="#A8A8A8"/>
<path opacity="0.2" d="M1027.29 653.5C1018.96 653.57 1007.93 652.2 1005.71 650.85C1004.02 649.85 1003.34 646.12 1003.12 644.42H1002.87C1002.87 644.42 1003.34 650.37 1005.56 651.72C1007.78 653.07 1018.81 654.44 1027.14 654.37C1029.55 654.37 1030.38 653.5 1030.33 652.23C1030 653.01 1029.08 653.49 1027.29 653.5Z" fill="black"/>
<path opacity="0.1" d="M952.84 798.12C969.9 798.12 983.73 795.783 983.73 792.9C983.73 790.017 969.9 787.68 952.84 787.68C935.78 787.68 921.95 790.017 921.95 792.9C921.95 795.783 935.78 798.12 952.84 798.12Z" fill="#2F80ED"/>
<path d="M932.1 768.63C932.1 768.63 949.72 768.08 955.03 764.3C960.34 760.52 982.14 756 983.46 762.07C984.78 768.14 1009.94 792.23 990.04 792.39C970.14 792.55 943.82 789.3 938.57 786.07C933.32 782.84 932.1 768.63 932.1 768.63Z" fill="#A8A8A8"/>
<path opacity="0.2" d="M990.4 790.28C970.5 790.44 944.17 787.18 938.87 783.96C934.87 781.5 933.23 772.67 932.69 768.6H932.1C932.1 768.6 933.22 782.84 938.57 786.07C943.92 789.3 970.2 792.56 990.09 792.39C995.84 792.39 997.82 790.31 997.71 787.28C996.86 789.07 994.67 790.25 990.4 790.28Z" fill="black"/>
<path d="M634.09 547.3C634.09 547.3 685.32 545.14 690.71 444.84C696.1 344.54 642.71 327.54 642.71 327.54C642.71 327.54 625.8 318.09 618.3 317.7C610.8 317.31 585.73 319.7 585.73 319.7L613.36 314.37C613.36 314.37 574.48 299.57 562.83 298.37L604.83 307.25C604.83 307.25 605.42 283.96 595.35 276.25C595.35 276.25 603.93 275.61 608.51 292.38C609.799 297.222 612.207 301.694 615.54 305.435C618.873 309.176 623.038 312.083 627.7 313.92C643.3 320.01 664.86 329.61 669.77 337.83C669.77 337.83 678.85 347.31 677.46 322.63C676.07 297.95 669.57 276.83 667.2 276.24C667.2 276.24 648.65 256.51 622.59 255.32C622.59 255.32 637.79 249.21 663.45 268.32C663.45 268.32 665.62 258.65 655.95 247.2C646.28 235.75 631.28 211.67 614.89 209.11C614.89 209.11 637.79 207.72 655.95 237.33C655.95 237.33 662.66 241.67 663.25 230.62C663.84 219.57 667.79 205.75 667.79 205.75C667.79 205.75 673.32 231.21 661.67 242.66C661.67 242.66 683.98 271.66 682.99 304.25C682.99 304.25 689.9 319.05 692.47 301.68C692.47 301.68 693.95 277.76 696.92 257.47C698.119 249.291 697.619 240.954 695.451 232.977C693.283 225 689.494 217.556 684.32 211.11C679.39 204.98 675.95 199.01 677.86 195.88L703.72 226.67C703.72 226.67 725.43 176.34 741.22 165.48C757.01 154.62 758.99 152.26 758.99 152.26L733.57 182.07L765.57 170.82L733.57 185.63C733.57 185.63 718.77 197.63 710.28 230.63C701.79 263.63 701 284.12 701 284.12C701 284.12 746.57 248.07 755.29 249.21L725.78 271.52C717.754 277.589 711.124 285.311 706.338 294.163C701.553 303.015 698.723 312.791 698.04 322.83V322.83C698.04 322.83 755.04 308.22 768.91 305.46L794.91 278.81L775.22 304.07L815.88 303.48L839.18 286.9C839.18 286.9 820.82 302.3 822.57 303.29C824.32 304.28 851.2 305.46 851.2 305.46C851.2 305.46 782.9 305.07 775.4 310C767.9 314.93 751.12 316.71 751.12 316.71L799.5 324.07L741.86 319.92C741.86 319.92 698.24 327.82 695.86 341.44C695.86 341.44 704.75 364.62 710.67 373.81C715.58 381.44 725.47 406.18 727.44 427.89C729.41 449.6 732.18 482.96 724.68 503.29C717.18 523.62 714.42 535.29 718.17 541.39C721.92 547.49 725.47 555.39 713.23 556.98C700.99 558.57 647.3 556.19 647.3 556.19C647.3 556.19 630.92 559.38 634.09 547.3Z" fill="#DEA3A2"/>
<path opacity="0.1" d="M662.78 536.53C668.145 533.797 674.298 533.029 680.17 534.36C690.17 536.53 705.62 535.36 707.02 535.14" fill="black"/>
<path opacity="0.1" d="M694.94 418.33C694.94 418.33 697.38 456.92 693.04 464.52L694.94 418.33Z" fill="black"/>
<path opacity="0.1" d="M703.96 464.52C703.96 464.52 700.83 500.66 698.66 507.73C696.49 514.8 703.96 464.52 703.96 464.52Z" fill="black"/>
<path opacity="0.1" d="M707.02 375.67C709.24 376.49 718.75 395.78 716.85 401.48C714.95 407.18 707.02 375.67 707.02 375.67Z" fill="black"/>
<path opacity="0.1" d="M682.91 355.65C683.91 356.11 688.37 367.23 687.48 370.51C686.59 373.79 682.91 355.65 682.91 355.65Z" fill="black"/>
<path opacity="0.1" d="M724.09 420.44C722.99 431.65 722.39 438.98 723.09 447.95C723.684 454.916 723.583 461.924 722.79 468.87" fill="black"/>
<path opacity="0.1" d="M605 289.98C606.249 291.606 606.905 293.61 606.86 295.66C606.93 297.66 606.66 299.72 606.79 301.75C606.92 303.78 607.95 306.38 610.07 306.67" fill="black"/>
<path opacity="0.1" d="M641.46 223.17C644.154 225.863 646.538 228.848 648.57 232.07C649.154 233.088 649.823 234.055 650.57 234.96C651.792 236.129 653.103 237.202 654.49 238.17C657.569 240.677 659.757 244.111 660.73 247.96" fill="black"/>
<path opacity="0.1" d="M744.64 165.5C743.988 166.761 743.134 167.906 742.11 168.89C741.21 169.74 740.19 170.46 739.38 171.39C738.73 172.199 738.145 173.059 737.63 173.96C735.465 177.234 733.026 180.318 730.34 183.18" fill="black"/>
<path opacity="0.1" d="M696.85 222.6C698.56 223.66 699 225.94 698.96 227.94C698.92 229.94 698.58 232.04 699.33 233.94C699.67 234.79 700.22 235.54 700.57 236.38C701.083 237.866 701.284 239.443 701.16 241.01C701.16 242.83 701.07 244.65 700.99 246.46C700.9 248.65 700.69 251.02 699.21 252.63" fill="black"/>
<path opacity="0.1" d="M698.26 330.77C699.384 329.852 700.578 329.023 701.83 328.29C702.979 327.588 704.217 327.044 705.51 326.67C707.512 326.315 709.538 326.114 711.57 326.07C713.626 326 715.588 325.194 717.1 323.8" fill="black"/>
<path opacity="0.1" d="M778.57 305.83C776.17 305.9 773.68 305.98 771.57 307.08C770.48 307.64 769.57 308.45 768.46 309.08C767.075 309.852 765.516 310.258 763.93 310.26" fill="black"/>
<path opacity="0.1" d="M745.22 315.74C745.508 315.586 745.842 315.542 746.16 315.616C746.478 315.689 746.759 315.875 746.95 316.14C747.38 316.63 747.61 317.27 748.06 317.75C748.93 318.7 750.36 318.81 751.65 318.85" fill="black"/>
<path opacity="0.1" d="M731.49 264.73L729.18 265.93C726.784 267.089 724.506 268.479 722.38 270.08" fill="black"/>
<path opacity="0.1" d="M705.12 287.29C703.6 286.93 702.29 288.55 702.02 290.09C701.75 291.63 702.02 293.24 701.63 294.74C701.156 296.041 700.377 297.21 699.36 298.15" fill="black"/>
<path opacity="0.1" d="M679.44 290.07C678.06 294.19 680.99 298.69 680.13 302.95C679.87 304.25 679.27 305.46 678.96 306.75C678.16 310.14 679.54 313.75 681.75 316.44" fill="black"/>
<path d="M381.09 372.79C364.67 394.93 351.15 460.06 347.36 479.69L318.76 478.56C320.56 461.67 355.14 393.47 364.76 374.76C369.91 374.07 375.42 373.37 381.09 372.79Z" fill="#2F80ED"/>
<path d="M738.41 364.93H725.73V382.79H738.41V364.93Z" fill="#DCE0ED"/>
<path opacity="0.1" d="M738.41 364.93V370.74C737.516 370.994 736.59 371.118 735.66 371.11L725.74 371.03V364.93H738.41Z" fill="black"/>
<path d="M720.38 319.43H732.38C735.243 319.434 738.039 320.292 740.41 321.896C742.782 323.499 744.62 325.775 745.69 328.43C749.19 337.06 752.16 350.78 744.36 364.43C743.491 365.96 742.229 367.23 740.705 368.109C739.181 368.988 737.449 369.444 735.69 369.43L720.41 369.3L720.38 319.43Z" fill="#DCE0ED"/>
<path d="M720.38 369.3C727.46 369.3 733.2 358.138 733.2 344.37C733.2 330.602 727.46 319.44 720.38 319.44C713.3 319.44 707.56 330.602 707.56 344.37C707.56 358.138 713.3 369.3 720.38 369.3Z" fill="#F0F0F4"/>
<path d="M625.81 365.14H613.13V380.77H625.81V365.14Z" fill="#DCE0ED"/>
<path opacity="0.1" d="M625.81 365.14V370.14C624.912 370.394 623.983 370.519 623.05 370.51L613.13 370.42V365.17L625.81 365.14Z" fill="black"/>
<path d="M607.78 319.65H619.78C622.642 319.652 625.438 320.51 627.808 322.114C630.178 323.718 632.014 325.994 633.08 328.65C636.59 337.28 639.56 351 631.76 364.65C630.889 366.18 629.625 367.45 628.099 368.329C626.573 369.208 624.841 369.664 623.08 369.65L607.81 369.51L607.78 319.65Z" fill="#DCE0ED"/>
<path d="M607.78 369.51C614.86 369.51 620.6 358.348 620.6 344.58C620.6 330.812 614.86 319.65 607.78 319.65C600.7 319.65 594.96 330.812 594.96 344.58C594.96 358.348 600.7 369.51 607.78 369.51Z" fill="#F0F0F4"/>
<path d="M610.98 328.76C610.98 328.76 606.25 329.52 608.71 335.76C610.016 338.79 610.965 341.961 611.54 345.21C611.54 345.21 616.27 347.67 616.08 339.54C615.89 331.41 610.98 328.76 610.98 328.76Z" fill="#DCE0ED"/>
<path d="M130.6 766.97C171.905 766.97 205.39 730.271 205.39 685C205.39 639.729 171.905 603.03 130.6 603.03C89.2946 603.03 55.81 639.729 55.81 685C55.81 730.271 89.2946 766.97 130.6 766.97Z" fill="#636780"/>
<path opacity="0.1" d="M158.62 608.14C119.49 610.77 88.49 646.39 88.49 689.95C88.49 725.06 108.63 755.01 136.94 766.68C176.08 764.05 207.08 728.43 207.08 684.87C207.08 649.76 186.93 619.81 158.62 608.14Z" fill="black"/>
<path d="M715.94 584.99C749.464 584.99 776.64 549.553 776.64 505.84C776.64 462.127 749.464 426.69 715.94 426.69C682.416 426.69 655.24 462.127 655.24 505.84C655.24 549.553 682.416 584.99 715.94 584.99Z" fill="#636780"/>
<path opacity="0.1" d="M698.98 430C673.8 439.65 655.42 470 655.42 505.95C655.42 544.37 676.42 576.39 704.26 583.59C729.43 573.94 747.82 543.59 747.82 507.64C747.82 469.22 726.82 437.2 698.98 430Z" fill="black"/>
<path d="M487.92 488.94L489.05 460.21C489.05 460.21 483.41 447.81 477.78 446.69C472.15 445.57 459.19 444.86 459.19 444.86C459.19 444.86 449.05 486.12 455.81 498.52C462.57 510.92 487.92 488.94 487.92 488.94Z" fill="#2F80ED"/>
<path opacity="0.1" d="M487.92 488.94L489.05 460.21C489.05 460.21 483.41 447.81 477.78 446.69C472.15 445.57 459.19 444.86 459.19 444.86C459.19 444.86 449.05 486.12 455.81 498.52C462.57 510.92 487.92 488.94 487.92 488.94Z" fill="black"/>
<path d="M383.98 485.84C383.98 485.84 380.49 446 402.38 445.28C405.2 445.19 408.02 445.12 410.83 444.85C426 443.38 467.39 440.19 462.43 449.64C462.43 449.64 452.57 484.29 459.33 493.02L383.98 485.84Z" fill="#2F80ED"/>
<path d="M694.26 559.71L723.62 560.56C723.62 560.56 728.69 506.47 730.38 502.25C732.07 498.03 732.92 477.74 727.43 474.79C721.94 471.84 703.57 468.24 703.57 468.24L690.03 499.07L688.98 526.96L694.26 559.71Z" fill="#2F80ED"/>
<path opacity="0.1" d="M694.26 559.71L723.62 560.56C723.62 560.56 728.69 506.47 730.38 502.25C732.07 498.03 732.92 477.74 727.43 474.79C721.94 471.84 703.57 468.24 703.57 468.24L690.03 499.07L688.98 526.96L694.26 559.71Z" fill="black"/>
<path d="M623.27 469.93L623.14 463.93C623.13 463.456 623.217 462.984 623.397 462.545C623.576 462.105 623.844 461.708 624.183 461.376C624.522 461.044 624.926 460.785 625.369 460.616C625.813 460.446 626.286 460.369 626.76 460.39C641.32 461 694.28 463.54 703.55 468.27C703.55 468.27 693.41 543.69 704.61 561.65L700.81 622.07L571.09 612.35L623.27 469.93Z" fill="#2F80ED"/>
<path opacity="0.1" d="M613.13 374.68C616.73 374.32 621.02 373.94 625.81 373.56V380.77H613.13V374.68Z" fill="black"/>
<path opacity="0.1" d="M738.41 381.87V382.78H725.74V377.3C730.137 378.29 734.393 379.825 738.41 381.87V381.87Z" fill="black"/>
<path d="M381.03 470.25C381.086 469.947 381.258 469.678 381.51 469.5C381.788 469.398 382.088 469.37 382.38 469.42V469.42C382.38 469.74 382.38 469.93 382.38 469.93C381.736 470.506 381.132 471.124 380.57 471.78C380.75 471.27 380.88 470.76 381.03 470.25ZM426.92 456.79C426.925 456.72 426.925 456.65 426.92 456.58C427.558 454.979 428.29 453.416 429.11 451.9C428.31 453.44 427.57 455.07 426.92 456.79V456.79ZM433.76 443.85C432.68 445.46 431.37 447.54 430.08 449.95C431.045 447.77 432.282 445.72 433.76 443.85V443.85ZM255.09 583.79C260.18 583.99 264.42 583.9 264.42 583.9C263.5 584.32 259.41 584.13 255.09 583.79ZM264.43 583.89C264.62 583.77 266.5 582.67 270.89 583.11C270.89 583.07 266.57 582.92 264.43 583.89V583.89ZM435.24 506.97L437.1 474.97C437.1 474.97 436.41 491.31 436.64 498.38C436.726 501.31 436.25 504.229 435.24 506.98V506.97Z" fill="url(#paint0_linear)"/>
<path d="M328.82 568.25C328.82 568.25 328.29 569.89 327.59 571.97C326.45 575.36 324.84 579.97 324.29 580.4C323.74 580.83 319.48 581.11 314.84 581.4C307.647 581.818 300.552 579.564 294.92 575.07C294.92 575.07 297.35 573.32 299.92 571.29C302.49 569.26 305.19 566.96 305.74 565.83C306.51 564.28 310.91 561.61 313.56 560.11C314.75 559.43 315.56 558.99 315.56 558.99L328.82 568.25Z" fill="#F899A5"/>
<path d="M323.2 582.38C323.2 582.38 276.44 580.23 273.65 579.61C270.86 578.99 270.29 575.71 270.29 575.71C269.36 573.53 274.29 574 274.29 574C274.79 574.08 280.29 575 285.47 575.66C289.62 576.19 293.55 576.55 294.47 576.16C296.56 575.29 300.73 575.66 300.73 575.66C298.36 567.82 291.18 565.95 288.11 565.51L288.3 565.32C289.116 564.56 290.011 563.89 290.97 563.32C300.5 563.71 305.54 576.85 305.54 576.85H305.62C306.7 577.19 318.19 580.75 320.47 581.08C322.85 581.45 323.2 582.38 323.2 582.38Z" fill="#F3B4B4"/>
<path d="M298.75 586.55C298.57 587.14 297.75 587.55 296.41 587.66C295.684 587.712 294.956 587.712 294.23 587.66C289.785 587.277 285.412 586.295 281.23 584.74C280.51 584.49 279.83 584.27 279.17 584.08H279.09C277.502 583.605 275.876 583.271 274.23 583.08C269.99 582.64 268.18 583.74 268 583.86C268 583.86 263.9 583.95 259 583.75C255.232 583.647 251.477 583.252 247.77 582.57V582.57C247.24 582.46 246.77 582.33 246.28 582.2C245.403 581.977 244.56 581.641 243.77 581.2C238.61 578.1 255.99 576.01 255.99 576.01C257.976 575.767 259.825 574.874 261.25 573.47L261.43 573.27L261.87 572.83C262.542 572.244 263.247 571.697 263.98 571.19L264.62 570.76C268.08 568.42 272.74 565.92 272.74 565.92C275.982 565.039 278.945 563.346 281.35 561C281.792 560.564 282.194 560.089 282.55 559.58V559.58L292.16 557.1L298.78 573C298.78 573 298.83 573.86 298.88 575.15C298.99 578.61 299.18 585.15 298.75 586.55Z" fill="#F899A5"/>
<path opacity="0.1" d="M296.41 587.66C295.684 587.712 294.956 587.712 294.23 587.66C289.785 587.277 285.412 586.295 281.23 584.74C280.51 584.49 279.83 584.27 279.17 584.08H279.09C277.502 583.605 275.876 583.271 274.23 583.08C269.99 582.64 268.18 583.74 268 583.86C268 583.86 263.9 583.95 259 583.75C255.232 583.647 251.477 583.252 247.77 582.57V582.57C247.24 582.46 246.77 582.33 246.28 582.2C246.92 582.121 247.566 582.094 248.21 582.12V582.12C248.7 582.18 254.26 582.86 259.44 583.29C263.62 583.64 267.56 583.83 268.44 583.4C270.49 582.4 274.67 582.62 274.67 582.62C271.97 574.89 264.67 573.34 261.62 573.03C261.68 572.96 261.75 572.9 261.8 572.83C262.579 572.053 263.433 571.357 264.35 570.75H264.55C273.96 570.9 279.5 583.62 279.5 583.62H279.58C280.67 583.91 292.31 586.98 294.58 587.21C295.211 587.258 295.829 587.41 296.41 587.66Z" fill="black"/>
<path d="M296.96 588.85C296.96 588.85 250.15 588.73 247.34 588.24C244.53 587.75 243.81 584.48 243.81 584.48C242.81 582.35 247.7 582.61 247.7 582.61C248.19 582.67 253.7 583.35 258.93 583.79C263.1 584.13 267.05 584.32 267.93 583.9C269.93 582.9 274.16 583.12 274.16 583.12C271.45 575.39 264.16 573.84 261.11 573.53L261.29 573.33C262.079 572.544 262.943 571.838 263.87 571.22C273.41 571.22 279.02 584.1 279.02 584.1H279.1C280.19 584.38 291.83 587.45 294.1 587.68C296.57 587.93 296.96 588.85 296.96 588.85Z" fill="#F3B4B4"/>
<path opacity="0.1" d="M328.82 568.25C328.82 568.25 328.29 569.89 327.59 571.97C327.31 571.78 318.1 565.65 314.59 561.63C314.178 561.178 313.822 560.677 313.53 560.14C314.72 559.46 315.53 559.02 315.53 559.02L328.82 568.25Z" fill="black"/>
<path d="M355.76 547.97L354.1 553.34L338.2 562C338.2 562 333.9 565.05 333.2 566.49C332.632 567.45 331.726 568.163 330.66 568.49C329.873 569.47 329.138 570.491 328.46 571.55C328.46 571.55 319.02 565.29 315.46 561.21C314.36 559.95 313.83 558.89 314.33 558.3C316.41 555.8 328.89 546.82 328.89 546.82C328.89 546.82 336.51 536.82 336.84 537C337.17 537.18 341 533.49 343.25 531.4L344.79 529.96L355.76 547.97Z" fill="#BDD3E8"/>
<path d="M379.57 533.99V536.64C379.57 536.64 389.57 546.21 388.25 554.01C386.93 561.81 389.72 571.53 389.72 571.53L399.78 570.81L398.26 535.17L379.57 533.99Z" fill="#BDD3E8"/>
<path opacity="0.05" d="M399.78 570.81L389.72 571.53C389.72 571.53 386.93 561.82 388.25 554.01C389.57 546.2 379.57 536.64 379.57 536.64V533.99L398.26 535.17L398.36 537.49L399.78 570.81Z" fill="black"/>
<path opacity="0.05" d="M344.08 532.96C340.897 535.917 337.948 539.117 335.26 542.53C331.72 547.24 325.69 554.01 325.69 554.01L318.48 558.28L315.48 561.19C314.38 559.93 313.85 558.87 314.35 558.28C316.43 555.78 328.91 546.8 328.91 546.8C328.91 546.8 336.53 536.8 336.86 536.98C337.19 537.16 341.02 533.47 343.27 531.38L344.08 532.96Z" fill="black"/>
<path opacity="0.1" d="M298.85 575.15C298.558 575.4 298.281 575.667 298.02 575.95C298.02 575.95 297.87 580.65 294.19 569.61C290.51 558.57 281.38 561.22 281.38 561.22C281.347 561.2 281.323 561.169 281.31 561.132C281.297 561.096 281.297 561.056 281.31 561.02C281.31 560.72 281.84 560.2 282.51 559.6L292.12 557.12L298.74 573.02C298.74 573.02 298.8 573.86 298.85 575.15Z" fill="black"/>
<path d="M332.76 512.35L327.16 512.5L323.33 517.95C323.33 517.95 317 524.72 315.09 526.41C313.18 528.1 300.81 539.73 297.28 545.77C297.28 545.77 294.04 547.39 294.04 549.01C294.04 550.63 287.86 555.34 287.86 555.34C287.86 555.34 281.38 559.75 282.26 560.34C282.26 560.34 291.39 557.69 295.07 568.73C298.75 579.77 298.9 575.06 298.9 575.06C299.536 574.363 300.283 573.775 301.11 573.32C301.99 573 306.18 566.97 307.47 566.82C308.422 566.632 309.318 566.228 310.09 565.64L317.59 558.28L324.81 554.01C324.81 554.01 330.81 547.24 334.37 542.53C337.063 539.118 340.015 535.919 343.2 532.96L332.76 512.35Z" fill="#BDD3E8"/>
<path opacity="0.1" d="M304.79 547.98C304.79 547.98 314.79 552.83 314.36 553.86C313.93 554.89 304.79 547.98 304.79 547.98Z" fill="black"/>
<path opacity="0.1" d="M312.69 546.8C312.69 546.8 313.47 551.17 317.45 550.97C321.43 550.77 312.69 546.8 312.69 546.8Z" fill="black"/>
<path opacity="0.1" d="M298.75 559.07C298.75 559.07 299.34 561.57 303.02 562.01C306.7 562.45 298.75 559.07 298.75 559.07Z" fill="black"/>
<path opacity="0.1" d="M336.22 547.98C336.22 547.98 341.07 549.98 341.51 552.76C341.95 555.54 336.22 547.98 336.22 547.98Z" fill="black"/>
<path opacity="0.1" d="M324.29 558.28C326.17 559.09 331.58 565.16 331.47 565.82C331.36 566.48 324.29 558.28 324.29 558.28Z" fill="black"/>
<path opacity="0.1" d="M332.9 553.97C333.464 553.77 334.073 553.729 334.659 553.852C335.244 553.976 335.785 554.259 336.22 554.67C337.57 556.07 332.9 553.97 332.9 553.97Z" fill="black"/>
<path d="M368.57 505.88C368.57 505.88 349.8 499.8 351.24 505.88C352.68 511.96 368.57 515.37 368.57 515.37V505.88Z" fill="#F899A5"/>
<path opacity="0.1" d="M398.36 537.49L392.59 537.09L379.56 536V534L398.26 535.17L398.36 537.49Z" fill="black"/>
<path opacity="0.1" d="M417.25 495.28C417.25 495.28 422.37 499.03 427.85 499.18C433.33 499.33 417.25 495.28 417.25 495.28Z" fill="black"/>
<path opacity="0.1" d="M423.87 483.39C423.87 483.39 427.92 481.39 430.2 483.06C432.48 484.73 423.87 483.39 423.87 483.39Z" fill="black"/>
<path opacity="0.1" d="M421.96 490.07C421.96 490.07 422.22 492.43 428.22 492.72C434.22 493.01 421.96 490.07 421.96 490.07Z" fill="black"/>
<path d="M389.72 571.53C389.72 571.53 380.37 574.62 376.72 573C373.07 571.38 365.13 565.2 365.13 565.2C365.13 565.2 360.03 560.2 355.18 554.61L354.56 553.89C350.36 549 346.56 543.89 346.56 541.36C346.584 540.31 346.453 539.262 346.17 538.25C345.747 536.787 345.07 535.409 344.17 534.18C343.668 533.474 343.091 532.823 342.45 532.24L327.14 512.51C327.14 512.51 331.56 507.8 331.56 506.51C331.56 505.22 336.86 497.98 343.63 501.81C346.48 503.41 353.29 509.38 360.23 515.75C369.78 524.51 379.55 534.04 379.55 534.04C379.55 534.04 380.24 534.78 381.25 535.93C383.84 538.93 388.52 544.58 388.89 547.44C389.43 551.36 389.72 571.53 389.72 571.53Z" fill="#BDD3E8"/>
<path opacity="0.05" d="M381.27 535.88C374.02 543.1 363.11 552.78 355.19 554.61L354.98 554.66L354.57 553.89L346.21 538.25L344.09 534.25L344.2 534.14L360.26 515.67C369.81 524.43 379.58 533.96 379.58 533.96C379.58 533.96 380.26 534.73 381.27 535.88Z" fill="black"/>
<path d="M439.88 549.41V552.76C439.88 552.76 444.52 569.14 436.13 573.76C431.89 576.11 422.86 576.67 414.96 576.65C409.691 576.665 404.586 574.824 400.539 571.45C396.492 568.077 393.763 563.385 392.83 558.2C392.517 556.635 392.487 555.026 392.74 553.45C392.74 553.45 388.99 526.62 388.1 526.45C388.1 526.45 367.01 550.6 354.1 553.38L343.2 533L360.61 513C360.61 513 373.53 492.47 377.28 490.59C381.03 488.71 384.79 483.45 384.79 483.45C384.79 483.45 399.92 470.83 409.96 492.14C420 513.45 426.52 530.66 428.96 537.05C428.96 537.05 432.5 544.29 434.7 544.27H434.77C436.126 544.283 437.423 544.83 438.379 545.792C439.336 546.754 439.875 548.054 439.88 549.41V549.41Z" fill="#BDD3E8"/>
<path opacity="0.1" d="M387.66 525.31C389.685 523.074 391.224 520.441 392.18 517.58C393.85 512.72 391.68 522.51 388.1 526.41L387.66 525.31Z" fill="black"/>
<path d="M802 561.62L782.84 561.9L743.26 489.97L736.65 477.96L741.72 447.54L745.62 454.9L802 561.62Z" fill="#DCE0ED"/>
<path d="M628.76 473.17L620.88 485L597.3 453.12L586.51 438.52L592.99 429.79L597.95 435.81L628.76 473.17Z" fill="#DCE0ED"/>
<path opacity="0.1" d="M597.95 435.8C597.95 436.41 598.02 437.04 598.06 437.67L597.3 453.12L586.51 438.52L592.99 429.79L597.95 435.8Z" fill="black"/>
<path opacity="0.1" d="M745.62 454.9L743.26 489.97L736.65 477.96L741.72 447.54L745.62 454.9Z" fill="black"/>
<path d="M575.57 458.24C575.57 458.24 566.11 387.59 600.57 377.02C601.012 376.891 601.463 376.798 601.92 376.74C609.85 375.79 683.72 367.27 722.07 377.39C722.07 377.39 748.27 381.34 747.99 395.39L736.37 567.53H717.5L723.69 453.73C723.69 453.73 732.69 404.15 717.78 400.73C702.87 397.31 634.96 391.73 611.02 398.48C611.02 398.48 593.55 394.53 596.37 437.63L595.24 460.73L575.57 458.24Z" fill="#DCE0ED"/>
<path d="M632.99 479.22C633.149 477.355 632.823 475.48 632.046 473.777C631.268 472.075 630.064 470.601 628.55 469.5C623.27 465.5 607 456.83 607 456.83L601.72 457.25L585.88 496.55L586.93 580L615.45 615.28L632.99 479.22Z" fill="#2F80ED"/>
<path opacity="0.1" d="M632.99 479.22C633.149 477.355 632.823 475.48 632.046 473.777C631.268 472.075 630.064 470.601 628.55 469.5C623.27 465.5 607 456.83 607 456.83L601.72 457.25L585.88 496.55L586.93 580L615.45 615.28L632.99 479.22Z" fill="black"/>
<path d="M519.19 566.69L519.75 481.05C519.75 481.05 517.22 447.81 537.08 447.25C537.08 447.25 583.91 447.59 604.26 454.2C604.902 454.406 605.49 454.753 605.981 455.215C606.472 455.678 606.854 456.243 607.099 456.871C607.344 457.5 607.447 458.175 607.398 458.847C607.35 459.52 607.152 460.173 606.82 460.76C602.82 467.81 595.94 486.48 592.64 534.36V585.7L519.19 566.69Z" fill="#2F80ED"/>
<path d="M617.99 621.41L532.77 619.42H532.69L490.81 618.45L495.66 562.46L518.9 563.31L592.85 579.79L615.45 615.28L617.99 621.41Z" fill="#2F80ED"/>
<path opacity="0.1" d="M617.99 621.41L532.77 619.42H532.69L490.81 618.45L495.66 562.46L518.9 563.31L592.85 579.79L615.45 615.28L617.99 621.41Z" fill="black"/>
<path d="M617.99 621.41L532.77 619.42L531.37 581.9L592.85 579.79L615.45 615.28L617.99 621.41Z" fill="#2F80ED"/>
<path opacity="0.1" d="M532.69 619.42L490.81 618.42L495.67 562.42C495.67 562.42 508.77 583.34 531.37 581.86L532.69 619.42Z" fill="white"/>
<path d="M833.27 664.71C831.58 680.77 820.17 678.23 820.17 678.23L818.04 678.04L796.93 676.12L797.78 651.19C797.78 651.19 809.27 650.41 819.19 652.48C827.11 654.12 834.02 657.58 833.27 664.71Z" fill="#DCE0ED"/>
<path d="M540.03 421.34C540.03 421.34 501.16 439.07 498.34 444.15C495.52 449.23 476.34 471.15 476.34 471.15L484.65 485.15L523.1 454.58L540.03 421.34Z" fill="#4C4981"/>
<path d="M510.41 511.99L492.41 509.3L479.17 524.92C479.17 524.92 460.72 534.07 458.57 538.07C456.42 542.07 449.71 553.79 446.75 553.88C443.79 553.97 441.02 558.29 441 560C440.98 561.71 429.73 581.35 426.94 582.48C424.15 583.61 419.31 589.99 419.43 591.25C419.55 592.51 408.93 605.07 408.93 605.07C408.93 605.07 390.93 633.24 388.25 634.14C385.57 635.04 375.2 653.23 372.57 655.39C369.94 657.55 362.57 659.49 363.47 661.24C364.37 662.99 382.47 687.73 381.37 694.74C381.37 694.74 394.84 684.08 395.37 680.8C395.9 677.52 412.57 660.22 412.57 660.22L499.88 569.54L516.71 512.39L510.41 511.99Z" fill="#CEDDF9"/>
<path opacity="0.1" d="M558.75 541.12C558.75 541.12 562.34 582.34 550.44 588.58C538.54 594.82 530.44 594.1 528.15 596.85C525.86 599.6 511.91 602.03 510.43 604.53C508.95 607.03 469.86 628.88 469.86 628.88C469.86 628.88 443.12 644.64 438.93 648.07C434.74 651.5 411.93 661.53 408.04 666.25C404.15 670.97 379.73 686.44 379.73 686.44C379.73 686.44 372.58 664.44 364.36 662.51C364.36 662.51 384.12 658.62 385.29 655.51C386.46 652.4 392.36 649.06 392.36 649.06C392.36 649.06 420.49 632.74 421.36 629.06C422.23 625.38 429.16 620.14 429.16 620.14C429.16 620.14 440.33 604.87 444.44 603.4C448.55 601.93 472.92 576.91 472.92 576.91C472.92 576.91 489.49 568.15 491.33 565.27C493.17 562.39 524.57 546.07 524.57 546.07L488.78 501.6L500.1 498.12L533.63 507.12L539.63 517.99L558.75 541.12Z" fill="black"/>
<path d="M560.77 541.72C560.77 541.72 564.37 582.94 552.47 589.18C540.57 595.42 532.47 594.71 530.17 597.45C527.87 600.19 513.93 602.64 512.45 605.13C510.97 607.62 471.89 629.49 471.89 629.49C471.89 629.49 445.15 645.24 440.95 648.64C436.75 652.04 413.95 662.11 410.06 666.83C406.17 671.55 381.75 687.01 381.75 687.01C381.75 687.01 374.57 665.07 366.38 663.07C366.38 663.07 386.15 659.19 387.31 656.07C388.47 652.95 394.38 649.61 394.38 649.61C394.38 649.61 422.51 633.29 423.38 629.61C424.25 625.93 431.19 620.68 431.19 620.68C431.19 620.68 442.36 605.41 446.47 603.95C450.58 602.49 474.94 577.45 474.94 577.45C474.94 577.45 491.51 568.69 493.35 565.81C495.19 562.93 479.15 524.81 479.15 524.81L490.83 502.11L502.15 498.64L535.68 507.64L541.68 518.51L560.77 541.72Z" fill="#CEDDF9"/>
<path d="M600.57 433.84L573.22 452.84C573.22 452.84 540.17 440.58 553.22 435.66C561.78 432.43 564.86 415.76 565.96 404.66C566.54 398.88 566.57 394.66 566.57 394.66C566.57 394.66 603.86 394.6 597 406.5C595.18 409.778 594.386 413.526 594.72 417.26C595.24 426.07 600.57 433.84 600.57 433.84Z" fill="#FEC2BE"/>
<path opacity="0.1" d="M594.66 417.27C589.152 418.558 583.375 418.029 578.191 415.764C573.008 413.498 568.696 409.617 565.9 404.7C566.48 398.92 566.51 394.7 566.51 394.7C566.51 394.7 603.8 394.64 596.94 406.54C595.126 409.809 594.332 413.546 594.66 417.27V417.27Z" fill="black"/>
<path d="M614 398.57C612.055 405.151 607.614 410.711 601.624 414.06C595.635 417.409 588.572 418.283 581.947 416.494C575.322 414.706 569.659 410.396 566.169 404.488C562.679 398.579 561.639 391.539 563.271 384.874C564.903 378.208 569.077 372.445 574.902 368.817C580.727 365.188 587.74 363.982 594.442 365.456C601.144 366.93 607.004 370.967 610.769 376.705C614.534 382.442 615.905 389.425 614.59 396.16C614.43 396.96 614.24 397.77 614 398.57Z" fill="#FEC2BE"/>
<path opacity="0.1" d="M561.48 423.18C561.48 423.18 556.89 423.18 556.6 429.71C556.31 436.24 551.67 435.76 551.67 435.76L530.11 458.15C530.11 458.15 520.43 481.33 520.51 482.27C520.59 483.21 518.33 487.13 518.84 489.11C519.35 491.09 518.64 497.11 516.84 496.58C515.04 496.05 512.04 497.9 512.08 500.85C512.12 503.8 496.93 512.85 497.55 515.05C498.17 517.25 540.8 539.9 540.8 539.9L558.54 553.65L575.1 522.8L588.9 480.29L596.57 455.61L602.92 448.51L600 431.85C600 431.85 597.38 424.64 595.24 425.65C593.1 426.66 585.24 435.15 577.86 435.89C570.48 436.63 566.17 437.53 564.45 435.89C562.73 434.25 552.28 433.07 561.48 423.18Z" fill="black"/>
<path opacity="0.1" d="M562.96 421.01C562.96 421.01 557.5 421.17 557.2 427.69C556.9 434.21 552.27 433.74 552.27 433.74L530.71 456.13C530.71 456.13 521.03 479.3 521.12 480.25C521.21 481.2 518.93 485.1 519.44 487.09C519.95 489.08 519.25 495.09 517.44 494.56C515.63 494.03 512.63 495.88 512.67 498.83C512.71 501.78 497.52 510.83 498.15 513.03C498.78 515.23 541.39 537.88 541.39 537.88L559.14 551.63L575.7 520.77L589.5 478.26L597.24 453.59L603.58 446.49L600.66 429.83C600.66 429.83 598.04 422.62 595.9 423.63C593.76 424.64 585.9 433.13 578.53 433.86C571.16 434.59 566.84 435.51 565.12 433.86C563.4 432.21 564.43 430.35 562.96 421.01Z" fill="black"/>
<path d="M562.76 421.68C562.76 421.68 557.29 421.84 557 428.36C556.71 434.88 552.07 434.42 552.07 434.42L530.51 456.8C530.51 456.8 520.83 479.98 520.92 480.92C521.01 481.86 518.73 485.78 519.24 487.76C519.75 489.74 519.05 495.76 517.24 495.23C515.43 494.7 512.44 496.55 512.48 499.5C512.52 502.45 497.33 511.5 497.96 513.7C498.59 515.9 541.2 538.56 541.2 538.56L558.94 552.3L575.5 521.45L589.31 478.94L597.04 454.26L603.39 447.16L600.47 430.5C600.47 430.5 597.85 423.29 595.71 424.31C593.57 425.33 585.71 433.8 578.34 434.54C570.97 435.28 566.64 436.19 564.92 434.54C563.2 432.89 564.23 431.07 562.76 421.68Z" fill="white"/>
<path opacity="0.1" d="M562.95 421.65C560.392 421.397 557.864 420.902 555.4 420.17C552.76 419.17 542.99 419.95 542.99 419.95C542.99 419.95 531.77 420.64 529.7 423.88C527.63 427.12 518.7 444.65 515.64 445.75C512.58 446.85 494.49 475.97 490.79 478.53C487.09 481.09 471.15 512.32 471.15 512.32C471.15 512.32 482.93 506.76 488.32 514.9C488.46 515.11 488.6 515.32 488.73 515.55C493.91 524.63 498.73 517.63 498.73 517.63C498.73 517.63 515.88 502.01 517.25 499.29C518.62 496.57 528.76 476.11 531.37 470.46C533.98 464.81 556.08 436.9 556.82 435.66C557.56 434.42 562.95 421.65 562.95 421.65Z" fill="black"/>
<path d="M562.95 421.65C559.945 421.237 556.974 420.609 554.06 419.77C551.41 418.77 541.64 419.55 541.64 419.55C541.64 419.55 530.42 420.24 528.35 423.47C526.28 426.7 517.35 444.25 514.29 445.34C511.23 446.43 493.14 475.56 489.44 478.13C485.74 480.7 469.8 511.92 469.8 511.92C469.8 511.92 481.58 506.36 486.98 514.5C487.11 514.7 487.25 514.92 487.38 515.15C492.56 524.22 497.38 517.23 497.38 517.23C497.38 517.23 514.54 501.6 515.9 498.89C517.26 496.18 527.41 475.71 530.02 470.06C532.63 464.41 554.73 436.5 555.47 435.25C556.21 434 562.95 421.65 562.95 421.65Z" fill="#4C4981"/>
<path opacity="0.1" d="M595.78 422.69C595.78 422.69 609.96 432.98 611.78 436.1C613.6 439.22 632.17 448.98 632.17 448.98C632.17 448.98 639.17 461.9 638.12 466.55C637.07 471.2 635.96 475.63 636.87 478.11C637.78 480.59 638.34 480.57 636.99 483.84C635.64 487.11 636.11 487.43 637.99 490.37C639.87 493.31 609.99 502.37 609.99 502.37C609.99 502.37 605.99 502.99 605.56 504.9C605.13 506.81 582.22 557.22 578.91 565.23C575.6 573.24 565.14 605.23 556.36 605.68C547.58 606.13 554.36 605.8 554.36 605.8C554.36 605.8 555.71 579.8 550.31 570.8C544.91 561.8 555.57 527.07 555.57 527.07C555.57 527.07 591.06 424.95 595.78 422.69Z" fill="black"/>
<path d="M595.78 422.69C595.78 422.69 611.31 433.39 613.13 436.5C614.95 439.61 633.57 449.38 633.57 449.38C633.57 449.38 640.57 462.3 639.52 466.95C638.47 471.6 637.36 476.04 638.27 478.51C639.18 480.98 639.74 480.97 638.39 484.24C637.04 487.51 637.5 487.83 639.39 490.78C641.28 493.73 611.39 502.78 611.39 502.78C611.39 502.78 607.39 503.41 606.96 505.31C606.53 507.21 583.57 557.65 580.24 565.65C576.91 573.65 566.47 605.6 557.69 606.07C548.91 606.54 555.69 606.19 555.69 606.19C555.69 606.19 557.04 580.19 551.64 571.19C546.24 562.19 556.99 527.44 556.99 527.44C556.99 527.44 591.06 424.95 595.78 422.69Z" fill="#4C4981"/>
<path d="M613.8 525.62C613.8 525.62 582.34 532.62 581.36 534.62C580.38 536.62 554.36 552.13 568.01 559.62C581.66 567.11 603.11 549.07 603.11 549.07L620.11 538.22L613.8 525.62Z" fill="#FEC2BE"/>
<path d="M627.86 483.68C628.37 483.83 639.33 490.78 639.33 490.78C639.33 490.78 644.49 507.92 645.62 512.12C646.75 516.32 649.62 523.79 649.43 525.19C649.24 526.59 652.55 534.38 647.27 537.94C641.99 541.5 636.45 540.94 633.91 543.32C631.37 545.7 613.86 553.32 611.65 553.92C609.44 554.52 622.57 527.81 606.36 523.7C606.36 523.7 617.97 524.79 618.57 522.76C619.17 520.73 619.84 515.43 617.67 513.5C615.5 511.57 606.13 502.34 606.13 502.34L627.86 483.68Z" fill="#4C4981"/>
<path opacity="0.1" d="M614.57 396.16C613.202 395.431 612.104 394.281 611.44 392.88C610.37 390.8 609.3 388.26 607.02 387.73C605.74 387.42 604.19 387.8 603.24 386.89C602.5 386.17 602.52 385 602.51 383.97C602.543 381.62 601.879 379.312 600.6 377.34C599.952 376.367 599.068 375.574 598.032 375.034C596.995 374.494 595.839 374.224 594.67 374.25C591.42 374.47 588.59 377.43 585.39 376.84C583.98 376.58 582.63 375.63 581.25 376C580.712 376.169 580.215 376.448 579.79 376.82C576.802 379.17 574.499 382.278 573.12 385.82C571.8 389.18 571.36 392.82 569.78 396.11C569.15 397.39 567.94 398.76 566.58 398.36C564.46 397.73 565.58 395.06 564.4 393.89C563.918 393.513 563.339 393.281 562.73 393.22C562.426 389.486 562.927 385.731 564.197 382.207C565.468 378.683 567.479 375.472 570.095 372.791C572.711 370.11 575.872 368.021 579.364 366.665C582.856 365.308 586.598 364.716 590.338 364.928C594.078 365.14 597.729 366.152 601.045 367.894C604.361 369.637 607.265 372.07 609.562 375.029C611.858 377.989 613.493 381.407 614.357 385.052C615.221 388.697 615.294 392.485 614.57 396.16V396.16Z" fill="black"/>
<path d="M566.8 397.68C568.16 398.08 569.37 396.68 570 395.44C571.58 392.19 572 388.51 573.34 385.15C574.72 381.606 577.027 378.497 580.02 376.15C580.441 375.776 580.934 375.493 581.47 375.32C582.85 374.96 584.21 375.9 585.61 376.16C588.81 376.76 591.61 373.79 594.89 373.57C596.06 373.545 597.217 373.816 598.253 374.358C599.29 374.9 600.173 375.695 600.82 376.67C602.104 378.636 602.77 380.942 602.73 383.29C602.73 384.29 602.73 385.49 603.47 386.21C604.41 387.13 605.96 386.75 607.25 387.05C609.53 387.59 610.59 390.12 611.67 392.2C612.75 394.28 614.92 396.46 617.09 395.56C617.74 395.29 618.27 394.76 618.94 394.56C620.17 394.15 621.64 394.82 622.74 394.14C624.14 393.28 623.74 391.14 622.83 389.71C621.92 388.28 620.83 386.71 621.4 385.18C621.767 384.438 622.281 383.778 622.91 383.24C624.517 381.383 625.352 378.982 625.244 376.53C625.136 374.077 624.093 371.758 622.33 370.05C621.44 369.25 620.4 368.63 619.53 367.81C617.78 366.17 616.85 363.87 615.53 361.81C613.924 359.324 611.738 357.265 609.16 355.81C608.035 355.116 606.772 354.676 605.46 354.52C603.65 354.38 601.87 355.06 600.06 355.24C594 355.85 588.79 351.06 582.86 349.7C582.187 349.48 581.475 349.409 580.772 349.492C580.069 349.575 579.393 349.81 578.79 350.18C577.61 351.1 577.36 352.75 576.79 354.18C575.6 357.24 572.72 359.38 569.66 360.56C566.13 361.91 561.66 362.64 560.19 366.11C558.91 369.11 560.57 372.55 559.9 375.71C559.38 378.18 557.53 380.11 556.1 382.19C554.67 384.27 553.62 387.07 554.86 389.27C555.627 390.452 556.768 391.343 558.1 391.8C559.76 392.48 563.46 392.12 564.58 393.22C565.7 394.32 564.68 397.07 566.8 397.68Z" fill="#9A5E7F"/>
<path opacity="0.1" d="M626.04 513.73C626.64 513.79 637.57 515.73 640.14 519.41C642.71 523.09 626.04 513.73 626.04 513.73Z" fill="black"/>
<path opacity="0.1" d="M620.57 502.07C620.57 502.07 632.49 504.77 633.87 505.92C635.25 507.07 620.57 502.07 620.57 502.07Z" fill="black"/>
<path opacity="0.1" d="M624.49 472.64C624.49 472.64 633.26 476.48 634.26 478.86C635.26 481.24 624.49 472.64 624.49 472.64Z" fill="black"/>
<path opacity="0.1" d="M512.41 572.07C513.32 572.71 534.86 588.69 533.1 589.27C531.34 589.85 512.41 572.07 512.41 572.07Z" fill="black"/>
<path opacity="0.1" d="M512.25 582.07C512.25 582.07 524.87 588.17 522.76 590.72C520.65 593.27 512.25 582.07 512.25 582.07Z" fill="black"/>
<g opacity="0.1">
<path opacity="0.1" d="M560.36 374.36C560.93 371.65 559.79 368.72 560.26 366.06C560.26 366.06 560.26 366.06 560.26 366.11C559 369.03 560.59 372.44 560 375.56C560.15 375.17 560.27 374.768 560.36 374.36V374.36Z" fill="black"/>
<path opacity="0.1" d="M621.8 383.81C621.709 384.074 621.662 384.351 621.66 384.63C622.036 384.125 622.454 383.654 622.91 383.22C623.975 382.056 624.704 380.625 625.02 379.08C624.637 380.112 624.056 381.06 623.31 381.87C622.681 382.408 622.167 383.068 621.8 383.81V383.81Z" fill="black"/>
<path opacity="0.1" d="M623.15 392.77C622.05 393.45 620.57 392.77 619.34 393.19C618.67 393.42 618.14 393.94 617.49 394.19C615.32 395.09 613.14 392.92 612.07 390.84C611 388.76 609.93 386.22 607.65 385.68C606.37 385.38 604.81 385.76 603.87 384.84C603.13 384.13 603.15 382.96 603.13 381.93C603.168 379.581 602.507 377.273 601.23 375.3C600.578 374.328 599.693 373.535 598.655 372.993C597.617 372.452 596.46 372.179 595.29 372.2C592.05 372.42 589.22 375.39 586.02 374.8C584.61 374.53 583.25 373.59 581.87 373.95C581.336 374.127 580.843 374.409 580.42 374.78C577.427 377.127 575.12 380.236 573.74 383.78C573.357 384.739 573.023 385.717 572.74 386.71C572.91 386.18 573.09 385.65 573.3 385.13C574.68 381.586 576.987 378.477 579.98 376.13C580.401 375.756 580.894 375.473 581.43 375.3C582.81 374.94 584.17 375.88 585.57 376.14C588.77 376.74 591.57 373.77 594.85 373.55C596.02 373.525 597.177 373.796 598.213 374.338C599.25 374.88 600.133 375.675 600.78 376.65C602.064 378.616 602.73 380.922 602.69 383.27C602.69 384.27 602.69 385.47 603.43 386.19C604.37 387.11 605.92 386.73 607.21 387.03C609.49 387.57 610.55 390.1 611.63 392.18C612.71 394.26 614.88 396.44 617.05 395.54C617.7 395.27 618.23 394.74 618.9 394.54C620.13 394.13 621.6 394.8 622.7 394.12C622.996 393.926 623.235 393.658 623.393 393.341C623.551 393.025 623.622 392.673 623.6 392.32C623.478 392.496 623.326 392.648 623.15 392.77V392.77Z" fill="black"/>
<path opacity="0.1" d="M570.4 394.07C569.78 395.35 568.56 396.71 567.2 396.31C565.08 395.69 566.2 393.02 565.03 391.85C563.86 390.68 560.21 391.11 558.55 390.43C557.219 389.97 556.079 389.08 555.31 387.9C554.758 386.86 554.609 385.653 554.89 384.51C554.535 385.25 554.35 386.059 554.35 386.88C554.35 387.701 554.535 388.511 554.89 389.25C555.657 390.432 556.798 391.323 558.13 391.78C559.79 392.46 563.49 392.1 564.61 393.2C565.73 394.3 564.66 397.04 566.78 397.66C568.14 398.06 569.35 396.66 569.98 395.42C570.622 394.028 571.141 392.583 571.53 391.1C571.227 392.117 570.85 393.109 570.4 394.07Z" fill="black"/>
</g>
<path opacity="0.1" d="M525.78 444.37C525.78 444.37 517.17 457.22 518.2 459.91C519.23 462.6 525.78 444.37 525.78 444.37Z" fill="black"/>
<path opacity="0.1" d="M527.04 486.24C527.04 486.24 531.61 488.15 533.28 489.94C534.95 491.73 527.04 486.24 527.04 486.24Z" fill="black"/>
<path opacity="0.1" d="M537.08 499.34C537.08 499.34 546.84 501.7 547.67 503.23C548.5 504.76 537.08 499.34 537.08 499.34Z" fill="black"/>
<path opacity="0.1" d="M538.78 512.7C538.78 512.7 547.61 513.86 548.61 517.28C549.61 520.7 538.78 512.7 538.78 512.7Z" fill="black"/>
<path opacity="0.1" d="M833.27 664.71C831.58 680.77 820.17 678.23 820.17 678.23L818.04 678.04C815.752 674.441 814.583 670.244 814.68 665.98C814.68 660.39 816.46 655.45 819.19 652.48C827.11 654.12 834.02 657.58 833.27 664.71Z" fill="black"/>
<path d="M506.79 454.29C487.5 454.29 471.87 475.42 471.87 501.48C471.87 527.54 487.5 548.66 506.79 548.66C526.08 548.66 541.72 527.53 541.72 501.48C541.72 475.43 526.09 454.29 506.79 454.29ZM501.86 538.8C487.16 538.8 475.25 523.48 475.25 504.57C475.25 485.66 487.16 470.35 501.86 470.35C516.56 470.35 528.48 485.67 528.48 504.57C528.48 523.47 516.57 538.8 501.86 538.8V538.8Z" fill="#636780"/>
<path d="M508.48 515.99L524.82 532.04L530.73 517.67L507.07 503.87L508.48 515.99Z" fill="#636780"/>
<path d="M532.57 357.07L546.79 358.8L552.07 365.07L544.07 401.07L527.07 459.07L515.91 498.89L508.07 523.07L503.07 555.07L498.07 577.07L483.07 592.07L452.57 556.07L447.57 544.07L435.57 519.57L466.57 505.07L500.57 502.07L516.57 461.07L529.57 413.57L532.57 357.07Z" fill="#2F80ED"/>
<path d="M244.82 528.66L226.23 684.72L460.31 674.86L433.27 598.24L388.2 568.94L491.3 570.63L491.86 527.82L450.17 518.8L366.23 512.04L303.13 509.23L242.85 528.94" fill="#2F80ED"/>
<path opacity="0.1" d="M244.82 528.66L226.23 684.72L460.31 674.86L433.27 598.24L388.2 568.94L491.3 570.63L491.86 527.82L450.17 518.8L366.23 512.04L303.13 509.23L242.85 528.94" fill="black"/>
<path d="M564.63 684.18C564.63 722.96 551.74 758.26 515.99 754.4C470.9 753.4 467.36 722.96 467.36 684.18C467.36 645.4 489.13 616.54 515.99 616.54C542.85 616.54 564.63 645.4 564.63 684.18Z" fill="#636780"/>
<path opacity="0.1" d="M564.91 684.25C564.91 654.25 551.86 630.15 533.5 620.81C509.92 625.29 491.8 652.41 491.8 687.81C491.8 719.59 494.18 745.81 519.86 754.74C552.89 755.91 564.91 721.7 564.91 684.25Z" fill="black"/>
<path d="M610.57 623.32L596.82 639.07L621.57 634.82L640.07 617.82L656.57 584.82L679.82 570.57L736.82 578.32L789.57 580.32L809.04 563.03L787.32 560.07L765.32 559.57L710.07 558.32L644.32 556.57L630.82 592.57L620.57 617.32L610.57 623.32Z" fill="#2F80ED"/>
<path d="M799.75 687.53C798.62 689.22 761.75 694.86 761.75 694.86L659.75 713.45L484.57 715.98L464.01 698.51L453.21 700.43L452.77 700.51L308.49 726.12L306.14 725.79L266.82 720.18L61.45 690.91L63.75 661.1L65.11 643.5L67.92 606.97L69.92 597.39L88.21 595.71L96.75 594.93L230.04 582.7L247.47 581.1L257.24 580.21L352.45 567.21L491.32 570.59L491.88 527.77L546.81 358.77C558.92 360.77 558.64 368.91 558.64 368.91L511.87 528.07L511.3 625.82C608.55 635.64 611.69 614.45 627.07 621.59L645.67 562.16L809.04 563.01C815.57 570.91 799.75 687.53 799.75 687.53Z" fill="#2F80ED"/>
<path d="M394.4 598.8L446.23 710.07L463.69 715.7L467.92 697.67L448.48 635.98L428.48 600.21L394.4 598.8Z" fill="#2F80ED"/>
<path opacity="0.15" d="M394.4 598.8L446.23 710.07L463.69 715.7L467.92 697.67L448.48 635.98L428.48 600.21L394.4 598.8Z" fill="black"/>
<path d="M360.66 827.81C412.503 827.81 454.53 780.137 454.53 721.33C454.53 662.523 412.503 614.85 360.66 614.85C308.817 614.85 266.79 662.523 266.79 721.33C266.79 780.137 308.817 827.81 360.66 827.81Z" fill="#636780"/>
<path opacity="0.1" d="M394.15 621.5C345.03 624.92 306.15 671.18 306.15 727.76C306.15 773.37 331.43 812.28 366.96 827.44C416.08 824.02 454.96 777.76 454.96 721.18C454.96 675.57 429.68 636.66 394.15 621.5Z" fill="black"/>
<path d="M109.05 535.14L104.4 557.07L90.18 624.18L29.05 618.26C29.05 618.26 25.39 607 34.97 602.77C34.97 602.77 38.11 564.64 49.41 552.63C50.6176 551.26 52.1369 550.2 53.84 549.54L109.05 535.14Z" fill="#2F80ED"/>
<path opacity="0.1" d="M104.4 557.07L90.18 624.18L29.05 618.26C29.05 618.26 25.39 607 34.97 602.77C34.97 602.77 38.11 564.64 49.41 552.63L104.4 557.07Z" fill="white"/>
<path d="M246.8 541.07C254.68 554.29 235.57 676.26 235.57 676.26L85.39 651.47L90.74 544.71C93.84 525.56 105.11 523.31 105.11 523.31C158.11 496.55 279.75 490.91 279.75 490.91C390.75 495.13 491.86 527.81 491.86 527.81C365.67 508.38 246.8 541.07 246.8 541.07Z" fill="#2F80ED"/>
<path opacity="0.1" d="M235.57 676.26L85.39 651.47L90.74 544.71C93.84 525.56 105.11 523.31 105.11 523.31C105.11 523.31 214.68 512.88 246.8 541.07C254.68 554.29 235.57 676.26 235.57 676.26Z" fill="black"/>
<path d="M219.66 669.22L94.12 648.07L98.57 556.98C101.16 540.64 110.57 538.72 110.57 538.72C110.57 538.72 202.19 529.82 229.04 553.86C235.67 565.15 219.66 669.22 219.66 669.22Z" fill="#2F80ED"/>
<path opacity="0.1" d="M209.33 625.56C218.818 625.56 226.51 611.56 226.51 594.29C226.51 577.02 218.818 563.02 209.33 563.02C199.842 563.02 192.15 577.02 192.15 594.29C192.15 611.56 199.842 625.56 209.33 625.56Z" fill="black"/>
<path d="M209.33 624.72C218.818 624.72 226.51 610.72 226.51 593.45C226.51 576.18 218.818 562.18 209.33 562.18C199.842 562.18 192.15 576.18 192.15 593.45C192.15 610.72 199.842 624.72 209.33 624.72Z" fill="#DCE0ED"/>
<path d="M211.57 570.35C211.57 570.35 204.57 571.47 208.19 580.77C211.81 590.07 212.41 594.85 212.41 594.85C212.41 594.85 219.41 598.52 219.17 586.4C218.93 574.28 211.57 570.35 211.57 570.35Z" fill="#F0F0F4"/>
<path opacity="0.1" d="M117.22 611.12C126.09 611.12 133.28 598.038 133.28 581.9C133.28 565.762 126.09 552.68 117.22 552.68C108.35 552.68 101.16 565.762 101.16 581.9C101.16 598.038 108.35 611.12 117.22 611.12Z" fill="black"/>
<path d="M117.22 610.27C126.09 610.27 133.28 597.188 133.28 581.05C133.28 564.912 126.09 551.83 117.22 551.83C108.35 551.83 101.16 564.912 101.16 581.05C101.16 597.188 108.35 610.27 117.22 610.27Z" fill="#DCE0ED"/>
<path d="M119.47 557.95C119.47 557.95 112.47 559.08 116.09 568.38C119.71 577.68 120.32 582.46 120.32 582.46C120.32 582.46 127.32 586.12 127.08 574.01C126.84 561.9 119.47 557.95 119.47 557.95Z" fill="#F0F0F4"/>
<path opacity="0.1" d="M189.57 567.81C188.45 579.36 182.81 664.99 182.81 664.99L173.25 663.39L167.94 662.52L160.86 661.33L160 661.19L132.11 656.54L137.62 565.71C137.805 562.792 139.107 560.058 141.257 558.076C143.406 556.095 146.237 555.018 149.16 555.07C149.443 555.055 149.727 555.055 150.01 555.07C151.94 555.24 154.01 555.44 156.18 555.68C157.09 555.78 158.02 555.88 158.95 556C161.63 556.32 164.4 556.71 167.11 557.15C168.49 557.39 169.85 557.64 171.2 557.9C173.47 558.35 175.67 558.85 177.7 559.42C179.07 559.8 180.38 560.21 181.58 560.66C186.62 562.48 189.91 564.83 189.57 567.81Z" fill="black"/>
<path d="M149.16 555.07L143.7 657.07L140.6 656.79L146.01 555.38C147.04 555.129 148.101 555.025 149.16 555.07V555.07Z" fill="#2F80ED"/>
<path d="M158.95 555.99L153.84 659.07H149.05L156.18 555.66C157.09 555.77 158.02 555.87 158.95 555.99Z" fill="#2F80ED"/>
<path d="M171.2 557.89L163.14 661.33H160.03V661.19L167.1 557.19C168.49 557.38 169.85 557.63 171.2 557.89Z" fill="#2F80ED"/>
<path d="M181.57 560.65L173.28 663.39V663.59L167.93 663.02V662.52L177.65 559.41C179.07 559.79 180.38 560.2 181.57 560.65Z" fill="#2F80ED"/>
<path opacity="0.1" d="M67.01 640.21C67.01 640.21 56.66 586.76 80.32 584.01C103.98 581.26 181.73 587.01 179.4 608.94C177.07 630.87 174.57 664.29 174.57 664.29L158.52 660.7C158.52 660.7 170.52 610.42 151.76 608.52C133 606.62 86.9 601.33 86.9 601.33C86.9 601.33 74.43 599.22 81.62 643.33L67.01 640.21Z" fill="black"/>
<path d="M67.01 645.28C67.01 645.28 56.66 588.45 80.32 585.7C103.98 582.95 181.73 588.7 179.4 610.63C177.07 632.56 174.57 665.98 174.57 665.98L158.52 662.39C158.52 662.39 170.52 612.11 151.76 610.21C133 608.31 86.87 603.07 86.87 603.07C86.87 603.07 74.4 604.34 81.59 648.5L67.01 645.28Z" fill="#DCE0ED"/>
<path d="M484.57 715.98L463.73 715.7C448.52 648.7 423.44 606.97 423.44 606.97C414.96 602.46 322.57 603.07 322.57 603.07C312.99 604.76 310.46 635.19 310.46 635.19C310.46 635.19 318.63 642.19 310.74 646.74C307.22 648.74 295.62 649.13 282.26 648.44C265.68 647.58 246.36 645.06 236.38 641.95C218.38 636.31 232.71 625.89 232.71 625.89C232.71 625.89 235.25 622.51 236.94 603.89C238.1 593.035 241.608 582.563 247.22 573.2C248 571.91 248.49 571.2 248.49 571.2C249.436 570.298 250.555 569.597 251.78 569.14C275.66 559.14 392.71 568.66 392.71 568.66L436.09 582.47C437.29 582.95 439.14 586.01 441.42 590.9C455.13 620.29 484.57 715.98 484.57 715.98Z" fill="#2F80ED"/>
<path opacity="0.1" d="M484.57 715.98L463.73 715.7C448.52 648.7 423.44 606.97 423.44 606.97C414.96 602.46 322.57 603.07 322.57 603.07C312.99 604.76 310.46 635.19 310.46 635.19C310.46 635.19 318.63 642.19 310.74 646.74C307.22 648.74 295.62 649.13 282.26 648.44C265.68 647.58 246.36 645.06 236.38 641.95C218.38 636.31 232.71 625.89 232.71 625.89C232.71 625.89 235.25 622.51 236.94 603.89C238.1 593.035 241.608 582.563 247.22 573.2C248 571.91 248.49 571.2 248.49 571.2C249.436 570.298 250.555 569.597 251.78 569.14C275.66 559.14 392.71 568.66 392.71 568.66L436.09 582.47C437.29 582.95 439.14 586.01 441.42 590.9C455.13 620.29 484.57 715.98 484.57 715.98Z" fill="black"/>
<path d="M441.42 590.89C401.42 575.33 291.02 583.59 291.02 583.59C279.3 573.59 257.25 572.91 247.22 573.18C248 571.89 248.49 571.18 248.49 571.18C249.436 570.278 250.555 569.577 251.78 569.12C275.66 559.12 392.71 568.64 392.71 568.64L436.09 582.45C437.29 582.94 439.14 586 441.42 590.89Z" fill="#2F80ED"/>
<path d="M297.5 587.81C294.97 596.54 284.57 631.48 284.57 631.48C283.482 637.068 282.717 642.714 282.28 648.39C265.7 647.53 246.38 645.01 236.4 641.9C218.4 636.26 232.73 625.84 232.73 625.84C232.73 625.84 235.27 622.46 236.96 603.84C238.201 592.193 242.157 581 248.51 571.16C249.456 570.258 250.575 569.557 251.8 569.1C267.44 572.82 299.42 581.2 297.5 587.81Z" fill="#2F80ED"/>
<path opacity="0.1" d="M297.5 587.81C294.97 596.54 284.57 631.48 284.57 631.48C283.482 637.068 282.717 642.714 282.28 648.39C265.7 647.53 246.38 645.01 236.4 641.9C218.4 636.26 232.73 625.84 232.73 625.84C232.73 625.84 235.27 622.46 236.96 603.84C238.201 592.193 242.157 581 248.51 571.16C249.456 570.258 250.575 569.557 251.8 569.1C267.44 572.82 299.42 581.2 297.5 587.81Z" fill="white"/>
<path d="M323.28 365.98C312.08 367.67 307.22 390.91 307.22 390.91L276.8 492.53L491.86 527.81L546.79 358.81C496.3 335.98 323.28 365.98 323.28 365.98ZM496.28 474.57C496.28 474.57 495.01 484.29 486.77 485.14L347.34 479.69L318.74 478.56L309.15 478.19H308.47C308.47 478.19 297.9 480.09 299.59 471.19C299.59 471.19 311.21 386.69 331.71 380.35C331.71 380.35 333.84 379.9 337.57 379.2C343.43 378.09 353.21 376.35 364.73 374.76C369.89 374.05 375.4 373.37 381.07 372.76C396.56 371.18 413.21 370.33 426.99 371.66C426.99 371.66 529.66 362.15 522.27 384.97C522.29 385 500.74 467.6 496.3 474.57H496.28Z" fill="#2F80ED"/>
<path d="M309.17 478.19H308.49C308.49 478.19 297.92 480.09 299.61 471.19C299.61 471.19 311.23 386.69 331.73 380.35C331.73 380.35 333.86 379.9 337.59 379.2C330.15 393.72 306.27 443.43 309.17 478.19Z" fill="#2F80ED"/>
<path opacity="0.1" d="M309.17 478.19H308.49C308.49 478.19 297.92 480.09 299.61 471.19C299.61 471.19 311.23 386.69 331.73 380.35C331.73 380.35 333.86 379.9 337.59 379.2C330.15 393.72 306.27 443.43 309.17 478.19Z" fill="black"/>
<path opacity="0.1" d="M328.1 686.62C326.876 688.897 325.029 690.778 322.774 692.042C320.519 693.307 317.951 693.903 315.37 693.76L311.06 693.57L270.45 691.82L255.81 691.19L242.29 690.07L63.75 661.07L65.11 643.47L85.64 646.41L94.14 647.63L220.19 665.63L236.78 668.07L244.83 669.22L278.92 668.97L315.82 668.7C317.682 668.665 319.532 669.005 321.26 669.7C324.429 670.957 326.991 673.39 328.41 676.49C329.165 678.082 329.531 679.831 329.477 681.592C329.423 683.354 328.951 685.077 328.1 686.62V686.62Z" fill="black"/>
<path d="M328.1 688.31C326.876 690.587 325.029 692.468 322.774 693.732C320.519 694.997 317.951 695.593 315.37 695.45L255.81 692.88L242.29 691.75L51.89 660.86L36.89 658.43L28.77 657.07C12.72 653.69 17.51 637.63 17.51 637.63C18.63 630.3 46.24 623.54 55.25 623.83C61.31 624.02 62.15 633.35 62.05 639.46C62.05 642.46 61.73 644.67 61.73 644.67L70.64 645.95L244.83 670.87L315.83 670.35C318.461 670.303 321.05 671.018 323.284 672.409C325.518 673.8 327.301 675.808 328.42 678.19C329.172 679.782 329.535 681.529 329.48 683.289C329.424 685.048 328.951 686.769 328.1 688.31V688.31Z" fill="#DCE0ED"/>
<path opacity="0.1" d="M42.29 634.01C42.29 634.01 49.9 643.3 61.73 644.71C61.73 644.71 56.94 634.29 42.29 634.01Z" fill="black"/>
<path opacity="0.1" d="M40.32 660.21C40.32 660.21 15.25 659.64 15.25 673.21C15.25 686.78 31.03 688.99 31.03 688.99L254.97 732.07L318.63 733.19C318.63 733.19 340.88 715.45 317.78 707.56L253.57 709.22L40.04 670.07C40.04 670.07 45.67 662.46 40.32 660.21Z" fill="black"/>
<path d="M318.63 734.85L254.97 733.73L55.85 695.41L41.28 692.6L31.03 690.6C31.03 690.6 15.25 688.34 15.25 674.82C15.25 665.12 28.17 662.67 35.46 662.06C38.33 661.83 40.32 661.87 40.32 661.87C45.67 664.12 40.04 671.72 40.04 671.72L47.81 673.15L253.57 710.91L317.79 709.22C340.88 717.07 318.63 734.85 318.63 734.85Z" fill="#DCE0ED"/>
<path d="M59.19 649.22L72.43 643.3L79.19 643.02L78.63 699.92L57.79 695.7L49.05 690.07L44.83 666.41C44.83 666.41 46.52 656.55 47.36 655.71C48.2 654.87 59.19 649.22 59.19 649.22Z" fill="#DCE0ED"/>
<path opacity="0.1" d="M59.19 649.22L72.43 643.3L79.19 643.02L78.63 699.92L57.79 695.7L49.05 690.07L44.83 666.41C44.83 666.41 46.52 656.55 47.36 655.71C48.2 654.87 59.19 649.22 59.19 649.22Z" fill="black"/>
<path opacity="0.1" d="M55.85 695.41L56.09 695.7L41.45 692.88L41.28 692.6C33.57 680.15 32.9 670.07 35.46 662.07C38.33 661.84 40.32 661.88 40.32 661.88C45.67 664.13 40.04 671.73 40.04 671.73L47.81 673.16C47.29 684.32 54.42 693.65 55.85 695.41Z" fill="black"/>
<path opacity="0.1" d="M77.51 643.07C75.03 644.017 72.74 645.017 70.64 646.07C61.16 650.63 55.31 655.75 51.89 660.94L36.89 658.51C43.38 645.03 58.89 638.87 58.89 638.87L62.03 639.58L77.51 643.07Z" fill="black"/>
<path d="M60.57 638.8C60.57 638.8 19.45 655.14 43.11 692.88L57.76 695.7C57.76 695.7 28.76 662.46 79.16 643.02L60.57 638.8Z" fill="#DCE0ED"/>
<path d="M158.63 657.11L173.84 656.55L171.3 717.67L146.79 713.17L136.37 708.1L131.58 695.98L128.2 683.87L136.37 672.88L145.67 666.69L158.63 657.11Z" fill="#DCE0ED"/>
<path opacity="0.1" d="M158.63 657.11L173.84 656.55L171.3 717.67L146.79 713.17L136.37 708.1L131.58 695.98L128.2 683.87L136.37 672.88L145.67 666.69L158.63 657.11Z" fill="black"/>
<path d="M156.94 701.05C160.983 701.05 164.26 695.503 164.26 688.66C164.26 681.817 160.983 676.27 156.94 676.27C152.897 676.27 149.62 681.817 149.62 688.66C149.62 695.503 152.897 701.05 156.94 701.05Z" fill="#DCE0ED"/>
<path d="M103.77 723.23C101.66 712.46 93.42 710.13 93.42 710.13C93.42 710.13 77.57 705.49 77.15 723.07C77.15 723.07 77.36 733.85 84.55 737.23L84.97 749.23C84.97 749.23 85.6 760.43 79.26 759.37C72.92 758.31 73.77 748.37 73.77 748.37C73.77 748.37 70.39 737.81 62.15 743.3C62.15 743.3 60.25 749.22 64.48 752.18C66.94 753.9 67.03 757.42 66.68 760.06C66.4339 761.69 66.5423 763.354 66.998 764.938C67.4536 766.522 68.2456 767.99 69.32 769.24C70.5357 770.697 72.1185 771.802 73.9048 772.442C75.691 773.082 77.6158 773.233 79.48 772.88C82.8911 772.21 85.985 770.431 88.28 767.82C92.1465 763.621 94.3197 758.138 94.38 752.43L94.69 736.97C94.69 736.97 105.88 734.01 103.77 723.23ZM90.77 734.11C88.99 734.11 87.2499 733.582 85.7699 732.593C84.2898 731.604 83.1363 730.199 82.4551 728.554C81.7739 726.91 81.5957 725.1 81.9429 723.354C82.2902 721.608 83.1474 720.005 84.406 718.746C85.6647 717.487 87.2684 716.63 89.0142 716.283C90.76 715.936 92.5696 716.114 94.2141 716.795C95.8587 717.476 97.2643 718.63 98.2532 720.11C99.2422 721.59 99.77 723.33 99.77 725.11C99.7594 727.488 98.8079 729.766 97.1234 731.445C95.4389 733.124 93.1583 734.067 90.78 734.07L90.77 734.11Z" fill="#DCE0ED"/>
<path d="M87.09 705.48C86.5781 705.694 86.1162 706.012 85.7338 706.414C85.3513 706.816 85.0567 707.293 84.8686 707.815C84.6805 708.337 84.6031 708.892 84.6412 709.446C84.6793 709.999 84.8321 710.539 85.09 711.03C86.75 714.14 88.74 718.16 88.55 719.22C88.23 721.01 92.25 719.54 92.77 719.11C93.29 718.68 100.59 719.11 101.01 714.11C101.43 709.11 97.11 706.5 97.11 706.5L98.8 695.62L88.8 694.78L88.91 704.71L87.09 705.48Z" fill="#636780"/>
<path opacity="0.1" d="M87.09 705.48C86.5781 705.694 86.1162 706.012 85.7338 706.414C85.3513 706.816 85.0567 707.293 84.8686 707.815C84.6805 708.337 84.6031 708.892 84.6412 709.446C84.6793 709.999 84.8321 710.539 85.09 711.03C86.75 714.14 88.74 718.16 88.55 719.22C88.23 721.01 92.25 719.54 92.77 719.11C93.29 718.68 100.59 719.11 101.01 714.11C101.43 709.11 97.11 706.5 97.11 706.5L98.8 695.62L88.8 694.78L88.91 704.71L87.09 705.48Z" fill="black"/>
<path opacity="0.1" d="M89.83 705.28C89.83 705.28 93.21 716.9 91.73 717.28C90.25 717.66 89.83 705.28 89.83 705.28Z" fill="black"/>
<path opacity="0.1" d="M93.63 702.53C93.63 702.53 97.01 714.15 95.53 714.53C94.05 714.91 93.63 702.53 93.63 702.53Z" fill="black"/>
<path d="M134.13 667.53L128.49 702.46C128.49 702.46 121.49 701.51 117.67 700.68C116.828 700.564 116.01 700.31 115.25 699.93C115.05 699.73 114.64 699.75 114.09 699.86C112.21 700.24 108.87 701.79 108.22 700.48C108.173 700.379 108.109 700.288 108.03 700.21C107.37 699.49 106.09 700.01 104.85 700.21C104.175 700.385 103.458 700.292 102.85 699.95C101.85 699.25 99.7 700.37 97.98 700.74C96.89 700.98 95.98 700.93 95.52 699.95C95.3548 699.631 95.1164 699.357 94.8243 699.148C94.5323 698.939 94.195 698.803 93.84 698.75V698.75C92.22 698.34 89.95 698.62 88.64 698.34C88.12 698.24 87.77 698.04 87.64 697.69C87.38 696.93 85.93 696.57 84.38 696.27C82.49 695.91 80.46 695.64 80.31 694.88C80.31 694.62 80.08 694.51 79.8 694.5C78.7524 694.659 77.7215 694.914 76.72 695.26V695.26C75.88 695.48 75.17 695.48 74.97 694.88C74.77 694.28 73.78 694.28 72.67 694.55C71.78 694.77 70.79 695.12 70.03 695.3C69.27 695.48 68.85 695.48 68.77 695.15C68.49 694.03 64.83 696.57 63.99 694.31C63.15 692.05 51.57 677.07 66.57 657.67C66.57 657.67 70.57 657.95 73.69 658.51C74.7243 658.648 75.7341 658.931 76.69 659.35V659.35C77.76 659.96 80.05 659.83 82.12 659.98C83.1611 659.994 84.186 660.24 85.12 660.7C85.4914 660.903 85.789 661.218 85.97 661.6C86.44 662.67 87.52 662.89 88.7 662.83C90.3 662.73 92.08 662.13 92.7 662.45H92.76C93.94 662.96 98.36 662.45 99.11 663.2L99.17 663.27C99.49 663.74 101.17 663.27 102.99 663.01C104.36 662.83 105.74 662.81 106.49 663.56C107.264 664.174 108.246 664.465 109.23 664.37C110.428 664.283 111.632 664.33 112.82 664.51C113.094 664.591 113.34 664.747 113.53 664.96C114.24 665.85 115.96 665.73 117.53 665.81C118.315 665.777 119.093 665.972 119.77 666.37C120.013 666.539 120.289 666.655 120.58 666.71C122.74 667.21 127.37 666.37 127.37 666.37L134.13 667.53Z" fill="#636780"/>
<path opacity="0.1" d="M72.67 694.53C71.78 694.75 70.79 695.1 70.03 695.28C58.59 677.53 68.22 664.05 73.64 658.51C74.6743 658.648 75.6841 658.931 76.64 659.35C65.13 672.61 70.47 689.17 72.67 694.53Z" fill="black"/>
<path opacity="0.1" d="M79.81 694.48C78.7624 694.639 77.7315 694.894 76.73 695.24C66.94 677.93 77.01 664.98 82.1 659.99C83.1411 660.004 84.166 660.25 85.1 660.71C74.15 672.69 77.4 687.6 79.81 694.48Z" fill="black"/>
<path opacity="0.1" d="M88.64 698.32C88.12 698.22 87.77 698.02 87.64 697.67C87.38 696.91 85.93 696.55 84.38 696.25C75.79 680.57 83.47 668.52 88.68 662.84C90.28 662.74 92.06 662.14 92.68 662.46H92.74C80.66 676.07 86.51 693.27 88.64 698.32Z" fill="black"/>
<path opacity="0.1" d="M97.99 700.72C96.9 700.96 95.99 700.91 95.53 699.93C95.3648 699.611 95.1264 699.337 94.8343 699.128C94.5423 698.919 94.205 698.783 93.85 698.73V698.73C83.85 681.26 94.05 668.2 99.14 663.23L99.2 663.3C99.52 663.77 101.2 663.3 103.02 663.04C88.78 677.41 96.1 696.49 97.99 700.72Z" fill="black"/>
<path opacity="0.1" d="M108.01 700.2C107.35 699.48 106.07 700 104.83 700.2C94.39 682.86 103.98 669.76 109.26 664.41C110.458 664.323 111.662 664.37 112.85 664.55C100.66 677.66 105.69 694.37 108.01 700.2Z" fill="black"/>
<path opacity="0.1" d="M117.67 700.68C116.828 700.564 116.01 700.31 115.25 699.93C115.05 699.73 114.64 699.75 114.09 699.86C104.84 684.02 112.22 671.79 117.53 665.86C118.315 665.827 119.093 666.022 119.77 666.42C120.013 666.589 120.289 666.705 120.58 666.76C110.46 679.8 115.57 695.52 117.67 700.68Z" fill="black"/>
<path d="M390.74 794.01C416.095 794.01 436.65 763.744 436.65 726.41C436.65 689.076 416.095 658.81 390.74 658.81C365.385 658.81 344.83 689.076 344.83 726.41C344.83 763.744 365.385 794.01 390.74 794.01Z" fill="#636780"/>
<path opacity="0.1" d="M389.19 782.18C407.625 782.18 422.57 757.65 422.57 727.39C422.57 697.13 407.625 672.6 389.19 672.6C370.755 672.6 355.81 697.13 355.81 727.39C355.81 757.65 370.755 782.18 389.19 782.18Z" fill="black"/>
<path d="M389.19 780.49C407.625 780.49 422.57 755.96 422.57 725.7C422.57 695.44 407.625 670.91 389.19 670.91C370.755 670.91 355.81 695.44 355.81 725.7C355.81 755.96 370.755 780.49 389.19 780.49Z" fill="#F0F0F4"/>
<path d="M395.24 695.7C397.416 695.7 399.18 692.673 399.18 688.94C399.18 685.207 397.416 682.18 395.24 682.18C393.064 682.18 391.3 685.207 391.3 688.94C391.3 692.673 393.064 695.7 395.24 695.7Z" fill="#636780"/>
<path d="M411.02 754.86C413.196 754.86 414.96 751.833 414.96 748.1C414.96 744.367 413.196 741.34 411.02 741.34C408.844 741.34 407.08 744.367 407.08 748.1C407.08 751.833 408.844 754.86 411.02 754.86Z" fill="#636780"/>
<path d="M368.48 726.69C370.656 726.69 372.42 723.663 372.42 719.93C372.42 716.197 370.656 713.17 368.48 713.17C366.304 713.17 364.54 716.197 364.54 719.93C364.54 723.663 366.304 726.69 368.48 726.69Z" fill="#636780"/>
<path d="M380.03 766.12C382.206 766.12 383.97 763.093 383.97 759.36C383.97 755.627 382.206 752.6 380.03 752.6C377.854 752.6 376.09 755.627 376.09 759.36C376.09 763.093 377.854 766.12 380.03 766.12Z" fill="#636780"/>
<path d="M726.79 601.33C726.79 601.33 759.79 689.22 758.06 694.71C758.06 694.71 772 703.16 775.38 701.05C778.76 698.94 775.81 660.05 775.81 660.05L769.47 625.83L762.28 605.55L726.79 601.33Z" fill="#2F80ED"/>
<path opacity="0.15" d="M726.79 601.33C726.79 601.33 759.79 689.22 758.06 694.71C758.06 694.71 772 703.16 775.38 701.05C778.76 698.94 775.81 660.05 775.81 660.05L769.47 625.83L762.28 605.55L726.79 601.33Z" fill="black"/>
<path d="M416.65 718.24C418.826 718.24 420.59 715.213 420.59 711.48C420.59 707.747 418.826 704.72 416.65 704.72C414.474 704.72 412.71 707.747 412.71 711.48C412.71 715.213 414.474 718.24 416.65 718.24Z" fill="#636780"/>
<path d="M395.24 743.87C401.619 743.87 406.79 736.68 406.79 727.81C406.79 718.94 401.619 711.75 395.24 711.75C388.861 711.75 383.69 718.94 383.69 727.81C383.69 736.68 388.861 743.87 395.24 743.87Z" fill="#636780"/>
<path d="M763.57 718.8C763.57 769.67 746.67 815.98 699.77 810.91C640.62 809.64 635.97 769.67 635.97 718.8C635.97 667.93 664.51 630.07 699.75 630.07C734.99 630.07 763.57 667.92 763.57 718.8Z" fill="#636780"/>
<path opacity="0.1" d="M763.92 718.88C763.92 679.5 746.8 647.88 722.71 635.66C691.78 641.54 668.01 677.12 668.01 723.53C668.01 765.22 671.14 799.53 704.82 811.33C748.15 812.89 763.92 768.07 763.92 718.88Z" fill="black"/>
<path opacity="0.1" d="M788.48 697.25C788.48 697.25 780.03 704.43 775.38 699.36C775.38 699.36 763.97 608.09 749.61 607.67L700.17 607.25C700.17 607.25 694.26 609.78 691.72 620.77L659.72 711.77L484.57 714.29L471.19 686.29L616.12 686.71V686.65C616.9 683.84 641.12 597.37 657.39 586.65C657.942 586.276 658.545 585.983 659.18 585.78C659.18 585.78 719.6 577.78 739.46 583.24C739.46 583.24 760.16 587.89 765.23 594.24C765.91 594.95 773.75 603.78 776.18 629.24L788.48 697.25Z" fill="black"/>
<path d="M788.48 698.94C788.48 698.94 780.03 706.12 775.38 701.05C775.38 701.05 763.97 609.78 749.61 609.36L700.17 608.94C700.17 608.94 694.26 611.47 691.72 622.46L659.72 713.46L484.57 715.98L471.19 687.98L616.12 688.4V688.34C616.9 685.53 641.12 599.06 657.39 588.34C657.942 587.966 658.545 587.673 659.18 587.47C659.18 587.47 719.6 579.47 739.46 584.93C739.46 584.93 760.16 589.58 765.23 595.93V595.98C765.91 596.69 773.75 605.52 776.18 630.98L788.48 698.94Z" fill="#2F80ED"/>
<path opacity="0.1" d="M788.48 698.94C788.48 698.94 780.03 706.12 775.38 701.05C775.38 701.05 763.97 609.78 749.61 609.36L700.17 608.94C700.17 608.94 694.26 611.47 691.72 622.46L659.72 713.46L484.57 715.98L471.19 687.98L616.12 688.4V688.34C616.9 685.53 641.12 599.06 657.39 588.34C657.942 587.966 658.545 587.673 659.18 587.47C659.18 587.47 719.6 579.47 739.46 584.93C739.46 584.93 760.16 589.58 765.23 595.93V595.98C765.91 596.69 773.75 605.52 776.18 630.98L788.48 698.94Z" fill="black"/>
<path d="M681.16 599.22C676.93 607.22 640.6 706.12 640.6 706.12L616.09 688.37V688.31C616.87 685.5 641.09 598.94 657.38 588.31C667.98 590.07 684.03 593.77 681.16 599.22Z" fill="#2F80ED"/>
<path d="M633.84 554.01L613.98 619.07L510.46 616.07L511.3 625.79C511.3 625.79 592.43 637.62 627.07 621.56L645.67 562.13L809.04 562.97L777.92 555.65L633.84 554.01Z" fill="#2F80ED"/>
<path opacity="0.1" d="M633.84 554.01L613.98 619.07L510.46 616.07L511.3 625.79C511.3 625.79 592.43 637.62 627.07 621.56L645.67 562.13L809.04 562.97L777.92 555.65L633.84 554.01Z" fill="white"/>
<path opacity="0.1" d="M148.49 656.54C148.49 656.54 93 684.43 134.12 710.63L145.12 713.16C145.12 713.16 104.84 684.16 172.12 656.54H148.49Z" fill="black"/>
<path d="M150.18 656.54C150.18 656.54 94.69 684.43 135.81 710.63L146.81 713.16C146.81 713.16 106.53 684.16 173.81 656.54H150.18Z" fill="#DCE0ED"/>
<path d="M724.25 778.8C741.282 778.8 755.09 755.152 755.09 725.98C755.09 696.808 741.282 673.16 724.25 673.16C707.218 673.16 693.41 696.808 693.41 725.98C693.41 755.152 707.218 778.8 724.25 778.8Z" fill="#636780"/>
<path opacity="0.1" d="M723.21 769.92C735.592 769.92 745.63 750.758 745.63 727.12C745.63 703.482 735.592 684.32 723.21 684.32C710.828 684.32 700.79 703.482 700.79 727.12C700.79 750.758 710.828 769.92 723.21 769.92Z" fill="black"/>
<path d="M723.21 768.23C735.592 768.23 745.63 749.068 745.63 725.43C745.63 701.792 735.592 682.63 723.21 682.63C710.828 682.63 700.79 701.792 700.79 725.43C700.79 749.068 710.828 768.23 723.21 768.23Z" fill="#F0F0F4"/>
<path d="M727.28 701.99C728.744 701.99 729.93 699.626 729.93 696.71C729.93 693.794 728.744 691.43 727.28 691.43C725.816 691.43 724.63 693.794 724.63 696.71C724.63 699.626 725.816 701.99 727.28 701.99Z" fill="#636780"/>
<path d="M737.88 748.21C739.344 748.21 740.53 745.846 740.53 742.93C740.53 740.014 739.344 737.65 737.88 737.65C736.416 737.65 735.23 740.014 735.23 742.93C735.23 745.846 736.416 748.21 737.88 748.21Z" fill="#636780"/>
<path d="M709.3 726.2C710.764 726.2 711.95 723.836 711.95 720.92C711.95 718.004 710.764 715.64 709.3 715.64C707.836 715.64 706.65 718.004 706.65 720.92C706.65 723.836 707.836 726.2 709.3 726.2Z" fill="#636780"/>
<path d="M717.06 757.01C718.524 757.01 719.71 754.646 719.71 751.73C719.71 748.814 718.524 746.45 717.06 746.45C715.596 746.45 714.41 748.814 714.41 751.73C714.41 754.646 715.596 757.01 717.06 757.01Z" fill="#636780"/>
<path d="M741.66 719.6C743.124 719.6 744.31 717.236 744.31 714.32C744.31 711.404 743.124 709.04 741.66 709.04C740.196 709.04 739.01 711.404 739.01 714.32C739.01 717.236 740.196 719.6 741.66 719.6Z" fill="#636780"/>
<path d="M727.28 739.62C731.566 739.62 735.04 734.006 735.04 727.08C735.04 720.154 731.566 714.54 727.28 714.54C722.994 714.54 719.52 720.154 719.52 727.08C719.52 734.006 722.994 739.62 727.28 739.62Z" fill="#636780"/>
<path opacity="0.1" d="M276.37 491.07C276.37 491.07 370.18 494.45 491.86 527.83L276.37 491.07Z" fill="black"/>
<path d="M723.92 326.84C723.92 326.84 718.83 327.66 721.48 334.38C724.13 341.1 724.57 344.57 724.57 344.57C724.57 344.57 729.67 347.22 729.46 338.45C729.25 329.68 723.92 326.84 723.92 326.84Z" fill="#DCE0ED"/>
<path d="M474.41 463.07L474.35 463.15C473.283 464.48 472.593 466.072 472.35 467.76C471.53 473.1 470.75 484.04 478.52 482.23C482.891 481.255 486.903 479.076 490.1 475.94C490.979 475.007 491.66 473.906 492.101 472.703C492.543 471.5 492.736 470.22 492.67 468.94V468.94C492.679 467.737 492.39 466.551 491.83 465.487C491.27 464.423 490.456 463.514 489.46 462.84L486.57 461.18C485.755 460.695 484.818 460.453 483.87 460.48L478.87 460.66C477.999 460.727 477.152 460.977 476.384 461.392C475.616 461.807 474.943 462.379 474.41 463.07Z" fill="#FEC2BE"/>
<path d="M530.57 371.57L515.64 445.75L505.07 468.07L512.07 481.07L527.57 444.57C527.57 444.57 544.57 391.07 544.57 389.57C544.57 388.07 530.57 371.57 530.57 371.57Z" fill="#2F80ED"/>
</g>
<defs>
<linearGradient id="paint0_linear" x1="346.09" y1="584.14" x2="346.09" y2="443.85" gradientUnits="userSpaceOnUse">
<stop stop-color="#808080" stop-opacity="0.25"/>
<stop offset="0.54" stop-color="#808080" stop-opacity="0.12"/>
<stop offset="1" stop-color="#808080" stop-opacity="0.1"/>
</linearGradient>
<clipPath id="clip0">
<rect width="1103.13" height="834.15" fill="white"/>
</clipPath>
</defs>
</svg>
